# This file uses centimeters as units for non-parametric coordinates.

mtllib Bellows.mtl
g default
v 1.122700 0.686736 -8.930120
v 1.122700 0.686736 -7.256351
v 1.118003 1.267616 -8.930120
v 1.118003 1.267616 -7.256351
v 4.699479 1.873674 -9.298063
v 4.699479 1.873674 -6.888407
v 4.716914 0.161472 -9.298064
v 4.716914 0.161472 -6.888407
v 4.709743 1.696928 -6.888407
v 4.709743 1.696928 -9.298063
v 1.122987 1.181795 -8.930120
v 1.122987 1.181795 -7.256351
v 4.723633 0.350708 -6.888407
v 4.723633 0.350708 -9.298064
v 1.125962 0.778622 -8.930120
v 1.125962 0.778622 -7.256351
v 4.482058 1.254800 -7.065428
v 4.482057 1.254800 -9.121042
v 1.401958 1.122604 -8.807159
v 1.401958 1.122604 -7.379312
v 4.747303 0.966956 -6.888407
v 4.747303 0.966956 -9.298064
v 1.136713 0.982837 -8.930120
v 1.136713 0.982837 -7.256351
v 4.531019 0.703108 -7.032751
v 4.531019 0.703108 -9.153720
v 1.352996 0.854722 -8.829856
v 1.352996 0.854722 -7.356615
v 4.699479 1.873674 -8.093235
v 4.704611 1.785301 -6.888407
v 4.709743 1.696928 -8.093235
v 4.704611 1.785301 -9.298064
v 4.723633 0.350708 -8.093235
v 4.720273 0.256090 -6.888407
v 4.716914 0.161472 -8.093236
v 4.720273 0.256090 -9.298063
v 4.699479 1.873674 -7.480632
v 4.709743 1.696928 -7.477240
v 4.699479 1.873674 -8.691200
v 4.709743 1.696928 -8.698342
v 4.723633 0.350708 -7.495442
v 4.716914 0.161472 -7.493748
v 4.723633 0.350708 -8.695720
v 4.716914 0.161472 -8.700555
v 5.707693 2.044242 -9.298065
v 5.712825 1.944910 -9.298064
v 5.707693 2.044242 -8.691200
v 5.717957 1.845578 -8.698343
v 5.717957 1.845578 -9.298065
v 5.732910 0.226321 -8.695720
v 5.726190 0.013619 -8.700555
v 5.726191 0.013619 -9.298064
v 5.729550 0.119970 -9.298063
v 5.732910 0.226321 -9.298064
v 5.707693 2.044242 -7.480632
v 5.717957 1.845578 -7.477240
v 5.707693 2.044242 -6.888407
v 5.712825 1.944910 -6.888407
v 5.717957 1.845578 -6.888407
v 5.732910 0.226321 -7.495441
v 5.726190 0.013619 -7.493747
v 5.732910 0.226321 -6.888407
v 5.729550 0.119970 -6.888407
v 5.726190 0.013619 -6.888407
vt 0.375000 0.000000
vt 0.625000 0.000000
vt 0.375000 0.250000
vt 0.625000 0.250000
vt 0.375000 0.500000
vt 0.625000 0.500000
vt 0.375000 0.750000
vt 0.625000 0.750000
vt 0.375000 1.000000
vt 0.625000 1.000000
vt 0.875000 0.000000
vt 0.875000 0.250000
vt 0.125000 0.000000
vt 0.125000 0.250000
vt 0.625000 0.528649
vt 0.875000 0.221351
vt 0.125000 0.221351
vt 0.375000 0.528649
vt 0.375000 0.221351
vt 0.625000 0.221351
vt 0.625000 0.719359
vt 0.875000 0.030641
vt 0.125000 0.030641
vt 0.375000 0.719359
vt 0.375000 0.030641
vt 0.625000 0.030641
vt 0.625000 0.576025
vt 0.875000 0.173975
vt 0.125000 0.173975
vt 0.375000 0.576025
vt 0.375000 0.173975
vt 0.625000 0.173975
vt 0.625000 0.630883
vt 0.875000 0.119117
vt 0.125000 0.119117
vt 0.375000 0.630883
vt 0.375000 0.119117
vt 0.625000 0.119117
vt 0.625000 0.681169
vt 0.875000 0.068832
vt 0.125000 0.068832
vt 0.375000 0.681169
vt 0.375000 0.068832
vt 0.625000 0.068832
vt 0.500000 0.500000
vt 0.625000 0.514324
vt 0.875000 0.235676
vt 0.500000 0.528649
vt 0.125000 0.235676
vt 0.375000 0.514324
vt 0.500000 0.719359
vt 0.625000 0.734680
vt 0.875000 0.015320
vt 0.500000 0.750000
vt 0.125000 0.015320
vt 0.375000 0.734680
vt 0.563557 0.500000
vt 0.563909 0.528649
vt 0.437962 0.500000
vt 0.437221 0.528649
vt 0.562021 0.719359
vt 0.562196 0.750000
vt 0.437493 0.719359
vt 0.436991 0.750000
vt 0.375000 0.514324
vt 0.375000 0.500000
vt 0.437962 0.500000
vt 0.437221 0.528649
vt 0.375000 0.528649
vt 0.437493 0.719359
vt 0.436991 0.750000
vt 0.375000 0.750000
vt 0.375000 0.734680
vt 0.375000 0.719359
vt 0.563909 0.528649
vt 0.563557 0.500000
vt 0.625000 0.500000
vt 0.625000 0.514324
vt 0.625000 0.528649
vt 0.562196 0.750000
vt 0.562021 0.719359
vt 0.625000 0.719359
vt 0.625000 0.734680
vt 0.625000 0.750000
vn -0.541198 -0.840895 -0.000000
vn -0.541198 -0.840895 -0.000000
vn -0.998318 -0.057981 -0.000000
vn -0.998318 -0.057981 -0.000000
vn -0.166848 0.985983 0.000000
vn -0.166848 0.985983 0.000000
vn -0.166845 0.985983 -0.000000
vn -0.166847 0.985983 -0.000000
vn -0.166848 0.985983 0.000000
vn -0.166847 0.985983 0.000000
vn -0.166845 0.985983 0.000000
vn 0.998668 0.051599 0.000000
vn 0.998668 0.051599 0.000000
vn 0.998668 0.051599 0.000000
vn 0.998668 0.051599 0.000000
vn 0.998668 0.051599 0.000000
vn -0.144633 -0.989485 -0.000000
vn -0.144619 -0.989487 -0.000000
vn -0.144606 -0.989489 0.000000
vn -0.144619 -0.989487 0.000000
vn -0.144634 -0.989485 0.000000
vn -0.144606 -0.989489 0.000000
vn -0.144606 -0.989489 0.000000
vn -0.074532 -0.249559 0.965487
vn -0.063814 -0.271837 0.960225
vn -0.084404 -0.004902 0.996420
vn -0.082354 -0.004783 0.996592
vn -0.101212 -0.005878 0.994848
vn -0.063813 -0.271836 -0.960225
vn -0.074531 -0.249559 -0.965487
vn -0.101212 -0.005878 -0.994848
vn -0.082354 -0.004783 -0.996592
vn -0.084403 -0.004902 -0.996420
vn 0.889038 -0.457834 -0.000000
vn 0.908480 -0.417928 -0.000000
vn 0.924430 -0.381352 -0.000000
vn 0.908719 -0.417409 -0.000000
vn 0.889038 -0.457834 -0.000000
vn 0.997826 0.065903 -0.000000
vn 0.997826 0.065904 -0.000000
vn -0.077031 0.018791 -0.996852
vn -0.075179 -0.015810 -0.997045
vn -0.996691 -0.081290 0.000000
vn -0.996691 -0.081290 0.000000
vn -0.075180 -0.015812 0.997045
vn -0.077032 0.018790 0.996852
vn -0.082469 0.002930 -0.996589
vn -0.101318 0.003597 -0.994848
vn -0.080497 0.219783 -0.972222
vn -0.070330 0.232416 -0.970070
vn -0.084522 0.003001 -0.996417
vn -0.999370 0.035485 0.000000
vn -0.999370 0.035485 0.000000
vn -0.666005 0.745948 0.000000
vn -0.666005 0.745947 0.000000
vn -0.101318 0.003599 0.994848
vn -0.082469 0.002931 0.996589
vn -0.084522 0.003003 0.996417
vn -0.070330 0.232417 0.970070
vn -0.080497 0.219783 0.972222
vn 0.997328 0.073049 -0.000000
vn 0.997328 0.073049 -0.000000
vn -0.114827 0.041985 -0.992498
vn -0.114751 0.051684 -0.992049
vn -0.987059 0.160360 0.000000
vn -0.987059 0.160358 0.000000
vn -0.114752 0.051685 0.992049
vn -0.114827 0.041985 0.992498
vn 0.998853 -0.047877 0.000000
vn 0.998853 -0.047877 0.000000
vn -0.083870 -0.006940 -0.996453
vn -0.082909 0.011019 -0.996496
vn -0.998075 0.062027 0.000000
vn -0.998075 0.062027 0.000000
vn -0.082909 0.011019 0.996496
vn -0.083870 -0.006940 0.996453
vn 0.877482 0.479610 0.000000
vn 0.903789 0.427979 0.000000
vn 0.922846 0.385169 0.000000
vn 0.904023 0.427485 0.000000
vn 0.877482 0.479610 0.000000
vn 0.999501 -0.031575 0.000001
vn 0.999501 -0.031575 0.000001
vn 0.999501 -0.031575 0.000001
vn 0.999501 -0.031575 0.000001
vn 0.999501 -0.031575 0.000001
vn 0.998668 0.051601 0.000000
vn 0.998668 0.051601 0.000000
vn 0.998668 0.051601 0.000000
vn 0.998668 0.051601 0.000000
vn 0.998668 0.051601 0.000000
vn 0.998318 0.057980 -0.000000
vn 0.998318 0.057980 -0.000000
vn 0.998318 0.057980 -0.000000
vn 0.999501 -0.031576 -0.000000
vn 0.999501 -0.031576 -0.000000
vn 0.999501 -0.031576 -0.000000
vn 0.999501 -0.031576 -0.000000
vn 0.999501 -0.031576 -0.000000
vn 0.999370 -0.035483 0.000000
vn 0.999370 -0.035483 0.000000
vn 0.999370 -0.035483 0.000000
vn -0.000001 -0.000000 -1.000000
vn -0.000001 -0.000000 -1.000000
vn -0.166808 0.985989 0.000000
vn -0.166808 0.985989 0.000000
vn 0.005969 -0.037698 0.999271
vn 0.005969 -0.037698 0.999271
vn 0.005969 -0.037698 0.999271
vn 0.005969 -0.037698 0.999271
vn 0.145862 -0.989305 -0.000000
vn 0.145862 -0.989305 -0.000000
vn 0.145862 -0.989305 -0.000000
vn 0.145862 -0.989305 -0.000000
vn 0.000000 -0.000000 -1.000000
vn -0.003229 -0.023944 0.999708
vn -0.003229 -0.023944 0.999708
vn -0.003229 -0.023944 0.999708
vn -0.003229 -0.023944 0.999708
vn -0.144947 -0.989439 -0.000000
vn -0.144947 -0.989439 -0.000000
vn 0.000000 0.000001 -1.000000
vn 0.000001 0.000009 -1.000000
vn -0.000001 -0.000009 -1.000000
vn 0.122317 0.992491 0.000000
vn 0.122317 0.992491 0.000000
vn 0.122317 0.992491 0.000000
vn 0.122317 0.992491 0.000000
vn 0.002835 -0.017912 -0.999836
vn 0.002835 -0.017912 -0.999836
vn 0.002835 -0.017912 -0.999836
vn 0.002835 -0.017912 -0.999836
vn -0.166809 0.985989 -0.000000
vn -0.166809 0.985989 -0.000000
vn -0.000000 0.000000 1.000000
vn -0.000001 0.000000 1.000000
vn 0.000001 0.000000 1.000000
vn 0.145862 -0.989305 0.000000
vn 0.145862 -0.989305 0.000000
vn 0.145862 -0.989305 0.000000
vn 0.145862 -0.989305 0.000000
vn -0.001131 -0.008392 -0.999964
vn -0.001131 -0.008392 -0.999964
vn -0.001131 -0.008392 -0.999964
vn -0.001131 -0.008392 -0.999964
vn 0.122317 0.992491 0.000000
vn 0.122317 0.992491 0.000000
vn 0.122317 0.992491 0.000000
vn 0.122317 0.992491 0.000000
vn 0.000000 0.000001 1.000000
vn -0.000001 -0.000002 1.000000
vn 0.000001 0.000005 1.000000
vn -0.144947 -0.989439 0.000000
vn -0.144947 -0.989439 0.000000
s 1
g Bellow
usemtl initialShadingGroup
f 11/19/1 12/20/2 4/4/3 3/3/4
s 2
f 3/3/5 4/4/6 6/6/7 37/57/8 29/45/9 39/59/10 5/5/11
s off
f 46/65/12 45/66/13 47/67/14 48/68/15 49/69/16
s 3
f 7/7/17 44/64/18 35/54/19 42/62/20 8/8/21 2/10/22 1/9/23
s 4
f 12/20/24 9/16/25 30/47/26 6/12/27 4/4/28
s 5
f 10/17/29 11/19/30 3/3/31 5/14/32 32/49/33
s 6
f 10/18/34 40/60/35 31/48/36 38/58/37 9/15/38 17/27/39 18/30/40
s 5
f 18/29/41 19/31/42 11/19/30 10/17/29
s 1
f 19/31/43 20/32/44 12/20/2 11/19/1
s 4
f 20/32/45 17/28/46 9/16/25 12/20/24
s 5
f 7/13/47 1/1/48 15/25/49 14/23/50 36/55/51
s 1
f 1/1/52 2/2/53 16/26/54 15/25/55
s 4
f 2/2/56 8/11/57 34/53/58 13/22/59 16/26/60
s 6
f 18/30/40 17/27/39 21/33/61 22/36/62
s 5
f 22/35/63 23/37/64 19/31/42 18/29/41
s 1
f 23/37/65 24/38/66 20/32/44 19/31/43
s 4
f 24/38/67 21/34/68 17/28/46 20/32/45
s 6
f 22/36/62 21/33/61 25/39/69 26/42/70
s 5
f 26/41/71 27/43/72 23/37/64 22/35/63
s 1
f 27/43/73 28/44/74 24/38/66 23/37/65
s 4
f 28/44/75 25/40/76 21/34/68 24/38/67
s 6
f 26/42/70 25/39/69 13/21/77 41/61/78 33/51/79 43/63/80 14/24/81
s 5
f 14/23/50 15/25/49 27/43/72 26/41/71
s 1
f 15/25/55 16/26/54 28/44/74 27/43/73
s 4
f 16/26/60 13/22/59 25/40/76 28/44/75
s off
f 50/70/82 51/71/83 52/72/84 53/73/85 54/74/86
f 56/75/87 55/76/88 57/77/89 58/78/90 59/79/91
s 6
f 40/60/35 39/59/92 29/45/93 37/57/94 38/58/37 31/48/36
s off
f 61/80/95 60/81/96 62/82/97 63/83/98 64/84/99
s 6
f 35/54/100 44/64/101 43/63/80 33/51/79 41/61/78 42/62/102
s 5
f 32/50/33 5/5/32 45/66/103 46/65/104
s 2
f 5/5/11 39/59/10 47/67/105 45/66/106
s off
f 39/59/107 40/60/108 48/68/109 47/67/110
f 40/60/111 10/18/112 49/69/113 48/68/114
s 5
f 10/18/29 32/50/33 46/65/104 49/69/115
s off
f 43/63/116 44/64/117 51/71/118 50/70/119
s 3
f 44/64/18 7/7/17 52/72/120 51/71/121
s 5
f 7/7/47 36/56/51 53/73/122 52/72/123
f 36/56/51 14/24/50 54/74/124 53/73/122
s off
f 14/24/125 43/63/126 50/70/127 54/74/128
f 38/58/129 37/57/130 55/76/131 56/75/132
s 2
f 37/57/8 6/6/7 57/77/133 55/76/134
s 4
f 6/6/27 30/46/26 58/78/135 57/77/136
f 30/46/26 9/15/25 59/79/137 58/78/135
s off
f 9/15/138 38/58/139 56/75/140 59/79/141
f 42/62/142 41/61/143 60/81/144 61/80/145
f 41/61/146 13/21/147 62/82/148 60/81/149
s 4
f 13/21/59 34/52/58 63/83/150 62/82/151
f 34/52/58 8/8/57 64/84/152 63/83/150
s 3
f 8/8/21 42/62/20 61/80/153 64/84/154
