# This file uses centimeters as units for non-parametric coordinates.

mtllib Painting.mtl
g default
v -0.107498 -4.583841 3.288457
v 0.107498 -4.583841 3.288457
v -0.107498 4.658805 3.288457
v 0.107498 4.658805 3.288457
v -0.107498 4.658805 -3.288457
v 0.107498 4.658805 -3.288457
v -0.107498 -4.583841 -3.288457
v 0.107498 -4.583841 -3.288457
vt 0.375000 0.000000
vt 0.625000 0.000000
vt 0.625000 0.250000
vt 0.375000 0.250000
vt 0.625000 0.500000
vt 0.375000 0.500000
vt 0.625000 0.750000
vt 0.375000 0.750000
vt 0.625000 1.000000
vt 0.375000 1.000000
vt 0.875000 0.000000
vt 0.875000 0.250000
vt 0.125000 0.000000
vt 0.125000 0.250000
vn 0.000000 0.000000 1.000000
vn 0.000000 0.000000 1.000000
vn 0.000000 0.000000 1.000000
vn 0.000000 0.000000 1.000000
vn 0.000000 1.000000 0.000000
vn 0.000000 1.000000 0.000000
vn 0.000000 1.000000 0.000000
vn 0.000000 1.000000 0.000000
vn 0.000000 0.000000 -1.000000
vn 0.000000 0.000000 -1.000000
vn 0.000000 0.000000 -1.000000
vn 0.000000 0.000000 -1.000000
vn 0.000000 -1.000000 0.000000
vn 0.000000 -1.000000 0.000000
vn 0.000000 -1.000000 0.000000
vn 0.000000 -1.000000 0.000000
vn 1.000000 0.000000 0.000000
vn 1.000000 0.000000 0.000000
vn 1.000000 0.000000 0.000000
vn 1.000000 0.000000 0.000000
vn -1.000000 0.000000 0.000000
vn -1.000000 0.000000 0.000000
vn -1.000000 0.000000 0.000000
vn -1.000000 0.000000 0.000000
s off
g polySurface1 pCube3
usemtl initialShadingGroup
f 1/1/1 2/2/2 4/3/3 3/4/4
f 3/4/5 4/3/6 6/5/7 5/6/8
f 5/6/9 6/5/10 8/7/11 7/8/12
f 7/8/13 8/7/14 2/9/15 1/10/16
f 2/2/17 8/11/18 6/12/19 4/3/20
f 7/13/21 1/1/22 3/4/23 5/14/24
g default
v -0.250000 -5.267844 3.950883
v -0.250000 5.267844 3.950883
v -0.250000 5.267844 -3.950883
v -0.250000 -5.267844 -3.950883
v 0.250000 -4.750025 3.500026
v 0.000025 -5.267844 3.950883
v 0.000025 5.267844 3.950883
v 0.250000 4.750024 3.500026
v 0.000025 5.267844 -3.950883
v 0.250000 4.750024 -3.500026
v 0.000025 -5.267844 -3.950883
v 0.250000 -4.750025 -3.500026
v 0.250000 4.274177 3.500026
v 0.250000 4.274174 -3.500026
v 0.250000 4.750024 3.150792
v 0.250000 4.503627 3.320391
v 0.250000 -4.750025 3.150793
v 0.250000 4.750024 -3.181232
v 0.250000 4.503623 -3.350832
v 0.250000 -4.750025 -3.181234
v 0.250000 -4.292382 3.500026
v 0.250000 -4.521830 3.320392
v 0.250000 -4.521831 -3.350833
v 0.250000 -4.292381 -3.500026
v -0.032708 4.274177 3.150792
v -0.032708 -4.292380 3.150793
v -0.032708 -4.292381 -3.181234
v -0.032708 4.274174 -3.181232
v 0.000025 5.000000 0.012780
v -0.250000 5.361047 0.012780
v -0.250000 -5.361047 0.012780
v 0.000025 -5.000000 0.012780
v 0.000025 5.000000 1.005480
v -0.250000 5.503711 1.005480
v -0.250000 -5.503712 1.005480
v 0.000025 -5.000000 1.005480
v 0.000025 5.000000 -1.001190
v -0.250000 5.503711 -1.001190
v -0.250000 -5.503712 -1.001190
v 0.000025 -5.000000 -1.001190
vt 0.283516 0.000000
vt 0.375000 0.000000
vt 0.375000 0.250000
vt 0.283516 0.250000
vt 0.625000 0.991668
vt 0.500013 1.000000
vt 0.500013 0.908516
vt 0.500013 0.875426
vt 0.500013 0.841627
vt 0.500013 0.750000
vt 0.625000 0.758332
vt 0.625000 0.768959
vt 0.625000 0.980026
vt 0.500013 0.000000
vt 0.633332 0.006249
vt 0.633332 0.017690
vt 0.633332 0.231854
vt 0.633332 0.243751
vt 0.500013 0.250000
vt 0.625000 0.258332
vt 0.625000 0.269974
vt 0.625000 0.481041
vt 0.625000 0.491668
vt 0.500013 0.500000
vt 0.500013 0.408373
vt 0.500013 0.374574
vt 0.500013 0.341484
vt 0.625000 0.506249
vt 0.625000 0.518146
vt 0.625000 0.732310
vt 0.625000 0.743751
vt 0.375000 0.341484
vt 0.375000 0.500000
vt 0.375000 0.750000
vt 0.375000 0.908516
vt 0.375000 1.000000
vt 0.856041 0.243751
vt 0.856041 0.231854
vt 0.866668 0.231854
vt 0.866668 0.243751
vt 0.856041 0.017690
vt 0.866668 0.017690
vt 0.644974 0.231854
vt 0.644974 0.243751
vt 0.644974 0.017690
vt 0.644974 0.231854
vt 0.644974 0.017690
vt 0.856041 0.017690
vt 0.856041 0.231854
vt 0.644974 0.006249
vt 0.856041 0.006249
vt 0.866668 0.006249
vt 0.375000 0.374574
vt 0.375000 0.408373
vt 0.216627 0.000000
vt 0.250426 0.000000
vt 0.250426 0.250000
vt 0.216627 0.250000
vt 0.375000 0.841627
vt 0.375000 0.875426
vt 0.125000 0.000000
vt 0.125000 0.250000
vn -1.000000 0.000000 0.000000
vn -1.000000 0.000000 0.000000
vn -1.000000 0.000000 0.000000
vn -1.000000 0.000000 0.000000
vn 0.805451 -0.592662 0.000000
vn 0.805451 -0.592662 0.000000
vn 0.805451 -0.592662 0.000000
vn 0.805451 -0.592662 0.000000
vn 0.805451 -0.592662 0.000000
vn 0.805451 -0.592662 0.000000
vn 0.805451 -0.592662 0.000000
vn 0.805451 -0.592662 0.000000
vn 0.805451 -0.592662 0.000000
vn 0.874570 0.000000 0.484900
vn 0.874570 0.000000 0.484900
vn 0.874570 0.000000 0.484900
vn 0.874570 0.000000 0.484900
vn 0.874570 0.000000 0.484900
vn 0.874570 0.000000 0.484900
vn 0.805451 0.592662 0.000000
vn 0.805451 0.592662 0.000000
vn 0.805451 0.592662 0.000000
vn 0.805451 0.592662 0.000000
vn 0.805451 0.592662 0.000000
vn 0.805451 0.592662 0.000000
vn 0.805451 0.592662 0.000000
vn 0.805451 0.592662 0.000000
vn 0.805451 0.592662 0.000000
vn 0.874570 0.000000 -0.484900
vn 0.874570 0.000000 -0.484900
vn 0.874570 0.000000 -0.484900
vn 0.874570 0.000000 -0.484900
vn 0.874570 0.000000 -0.484900
vn 0.874570 0.000000 -0.484900
vn 0.000000 0.000000 1.000000
vn 0.000000 0.000000 1.000000
vn 0.000000 0.000000 1.000000
vn 0.000000 0.000000 1.000000
vn 0.709676 0.704518 -0.003824
vn 0.709676 0.704518 -0.003824
vn 0.767257 0.641172 -0.014649
vn 0.763946 0.645129 -0.013999
vn 0.000000 0.000000 -1.000000
vn 0.000000 0.000000 -1.000000
vn 0.000000 0.000000 -1.000000
vn 0.000000 0.000000 -1.000000
vn 0.763946 -0.645129 -0.013999
vn 0.767257 -0.641172 -0.014649
vn 0.709676 -0.704518 -0.003824
vn 0.709676 -0.704518 -0.003824
vn 1.000000 0.000000 0.000000
vn 1.000000 0.000000 0.000000
vn 1.000000 0.000000 0.000000
vn 1.000000 0.000000 0.000000
vn 1.000000 -0.000000 0.000000
vn 1.000000 0.000000 0.000000
vn 1.000000 0.000000 0.000000
vn 1.000000 0.000000 0.000000
vn 1.000000 0.000000 0.000000
vn 1.000000 0.000000 0.000000
vn 1.000000 0.000000 0.000000
vn 1.000000 -0.000000 0.000000
vn 1.000000 0.000000 0.000000
vn 1.000000 0.000000 0.000000
vn 1.000000 0.000000 0.000000
vn 1.000000 0.000000 0.000000
vn 1.000000 0.000000 0.000000
vn 1.000000 -0.000000 0.000000
vn 1.000000 -0.000000 0.000000
vn 1.000000 0.000000 0.000000
vn 0.514440 -0.000000 -0.857527
vn 0.514439 -0.000000 -0.857527
vn 0.514439 -0.000000 -0.857527
vn 0.514439 -0.000000 -0.857527
vn 0.630178 0.776451 0.000000
vn 0.630178 0.776451 0.000000
vn 0.630178 0.776451 0.000000
vn 0.630178 0.776451 0.000000
vn 0.514438 -0.000000 0.857527
vn 0.514439 -0.000000 0.857527
vn 0.514439 -0.000000 0.857527
vn 0.514439 -0.000000 0.857527
vn 0.630178 -0.776451 0.000000
vn 0.630178 -0.776451 0.000000
vn 0.630178 -0.776451 0.000000
vn 0.630178 -0.776451 0.000000
vn 0.865687 0.500586 -0.000026
vn 0.865687 0.500586 -0.000000
vn 0.767985 0.640303 0.014531
vn 0.764720 0.644212 0.013904
vn -1.000000 0.000000 0.000000
vn -1.000000 0.000000 0.000000
vn -1.000000 0.000000 0.000000
vn -1.000000 0.000000 0.000000
vn 0.764720 -0.644212 0.013904
vn 0.767985 -0.640303 0.014531
vn 0.865687 -0.500586 -0.000000
vn 0.865687 -0.500586 -0.000026
vn 0.709676 0.704517 0.003819
vn 0.709676 0.704517 0.003819
vn -1.000000 0.000000 0.000000
vn -1.000000 0.000000 0.000000
vn 0.709676 -0.704517 0.003819
vn 0.709676 -0.704517 0.003819
s 1
g pCube3 polySurface2
usemtl initialShadingGroup
f 43/15/25 9/16/26 10/17/27 42/18/28
s off
f 13/19/29 14/20/30 44/21/31 40/22/32 48/23/33 19/24/34 20/25/35 28/26/36 25/27/37
f 14/28/38 13/29/39 29/30/40 21/31/41 16/32/42 15/33/43
f 15/33/44 16/34/45 23/35/46 26/36/47 18/37/48 17/38/49 45/39/50 37/40/51 41/41/52
f 17/38/53 18/42/54 22/43/55 32/44/56 20/45/57 19/24/58
f 9/16/59 14/28/60 15/33/61 10/17/62
s 2
f 10/17/63 15/33/64 41/41/65 42/46/66
s off
f 11/47/67 17/38/68 19/24/69 12/48/70
s 3
f 43/49/71 44/21/72 14/20/73 9/50/74
s 4
f 26/51/75 27/52/76 22/53/77 18/54/78
f 27/52/76 31/55/79 32/56/80 22/53/77
f 21/31/81 24/57/82 23/58/83 16/32/84
f 29/30/85 30/59/86 24/57/82 21/31/81
f 23/58/83 24/57/82 27/52/76 26/51/75
s off
f 33/60/87 34/61/88 35/62/89 36/63/90
s 4
f 13/29/91 25/64/92 30/59/86 29/30/85
f 31/55/79 30/59/86 25/64/92 28/65/93
f 32/56/80 31/55/79 28/65/93 20/66/94
s off
f 24/57/95 30/59/96 34/61/97 33/60/98
f 30/59/99 31/55/100 35/62/101 34/61/102
f 31/55/103 27/52/104 36/63/105 35/62/106
f 27/52/107 24/57/108 33/60/109 36/63/110
s 2
f 38/67/111 37/40/112 45/39/113 46/68/114
s 1
f 47/69/115 39/70/116 38/71/117 46/72/118
s 3
f 47/73/119 48/23/120 40/22/121 39/74/122
s 2
f 42/46/66 41/41/65 37/40/112 38/67/111
s 1
f 39/70/116 43/15/25 42/18/28 38/71/117
s 3
f 39/74/122 40/22/121 44/21/72 43/49/71
s 2
f 46/68/114 45/39/113 17/38/123 11/47/124
s 1
f 12/75/125 47/69/115 46/72/118 11/76/126
s 3
f 12/48/127 19/24/128 48/23/120 47/73/119
