# This file uses centimeters as units for non-parametric coordinates.

mtllib Handle_1.mtl
g default
v 3.691094 0.290987 -0.149690
v 3.691131 0.163654 -0.242203
v 3.691176 0.006261 -0.242203
v 3.691213 -0.121073 -0.149690
v 3.691227 -0.169710 0.000000
v 3.691213 -0.121073 0.149690
v 3.691176 0.006261 0.242203
v 3.691131 0.163654 0.242203
v 3.691094 0.290987 0.149690
v 3.691080 0.339625 0.000000
v -5.874018 0.310341 -0.165749
v -5.873978 0.169345 -0.268187
v -5.873928 -0.004933 -0.268187
v -5.873886 -0.145928 -0.165749
v -5.873870 -0.199783 0.000000
v -5.873886 -0.145928 0.165749
v -5.873928 -0.004933 0.268187
v -5.873978 0.169345 0.268187
v -5.874018 0.310341 0.165749
v -5.874034 0.364196 0.000000
v 3.691154 0.084957 0.000000
v -5.873953 0.082207 0.000000
v 2.853531 0.163413 -0.242203
v 2.853494 0.290746 -0.149690
v 2.853480 0.339383 0.000000
v 2.853494 0.290746 0.149690
v 2.853531 0.163413 0.242203
v 2.853576 0.006020 0.242203
v 2.853613 -0.121314 0.149690
v 2.853627 -0.169951 0.000000
v 2.853613 -0.121314 -0.149690
v 2.853576 0.006020 -0.242203
v 2.621627 0.131507 -0.144214
v 2.621605 0.207325 -0.089129
v 2.621596 0.236285 0.000000
v 2.621605 0.207325 0.089129
v 2.621627 0.131507 0.144214
v 2.621654 0.037791 0.144214
v 2.621675 -0.038027 0.089129
v 2.621684 -0.066986 0.000000
v 2.621675 -0.038027 -0.089129
v 2.621654 0.037791 -0.144214
v -5.586199 -0.004851 0.268187
v -5.586157 -0.145845 0.165749
v -5.586141 -0.199700 0.000000
v -5.586157 -0.145845 -0.165749
v -5.586199 -0.004851 -0.268187
v -5.586249 0.169428 -0.268187
v -5.586290 0.310424 -0.165749
v -5.586305 0.364279 0.000000
v -5.586290 0.310424 0.165749
v -5.586249 0.169428 0.268187
v -5.436174 0.035474 0.144214
v -5.436151 -0.040344 0.089129
v -5.436142 -0.069303 0.000000
v -5.436151 -0.040344 -0.089129
v -5.436174 0.035474 -0.144214
v -5.436201 0.129190 -0.144214
v -5.436223 0.205009 -0.089129
v -5.436231 0.233968 0.000000
v -5.436223 0.205009 0.089129
v -5.436201 0.129190 0.144214
vt 0.375000 0.312500
vt 0.400000 0.312500
vt 0.400000 0.345420
vt 0.375000 0.345420
vt 0.425000 0.312500
vt 0.425000 0.345420
vt 0.450000 0.312500
vt 0.450000 0.345420
vt 0.475000 0.312500
vt 0.475000 0.345420
vt 0.500000 0.312500
vt 0.500000 0.345420
vt 0.525000 0.312500
vt 0.525000 0.345420
vt 0.550000 0.312500
vt 0.550000 0.345420
vt 0.575000 0.312500
vt 0.575000 0.345420
vt 0.600000 0.312500
vt 0.600000 0.345420
vt 0.625000 0.312500
vt 0.625000 0.345420
vt 0.548284 0.007647
vt 0.626409 0.064409
vt 0.500000 0.150000
vt 0.451716 0.007647
vt 0.373591 0.064409
vt 0.343750 0.156250
vt 0.373591 0.248091
vt 0.451716 0.304853
vt 0.548284 0.304853
vt 0.626409 0.248091
vt 0.656250 0.156250
vt 0.626409 0.935591
vt 0.548284 0.992353
vt 0.500000 0.837500
vt 0.451716 0.992353
vt 0.373591 0.935591
vt 0.343750 0.843750
vt 0.373591 0.751909
vt 0.451716 0.695147
vt 0.548284 0.695147
vt 0.626409 0.751909
vt 0.656250 0.843750
vt 0.400000 0.354535
vt 0.375000 0.354535
vt 0.625000 0.354535
vt 0.600000 0.354535
vt 0.575000 0.354535
vt 0.550000 0.354535
vt 0.525000 0.354535
vt 0.500000 0.354535
vt 0.475000 0.354535
vt 0.450000 0.354535
vt 0.425000 0.354535
vt 0.400000 0.688440
vt 0.375000 0.688440
vt 0.625000 0.688440
vt 0.600000 0.688440
vt 0.575000 0.688440
vt 0.550000 0.688440
vt 0.525000 0.688440
vt 0.500000 0.688440
vt 0.475000 0.688440
vt 0.450000 0.688440
vt 0.425000 0.688440
vt 0.525000 0.677131
vt 0.500000 0.677131
vt 0.475000 0.677131
vt 0.450000 0.677131
vt 0.425000 0.677131
vt 0.400000 0.677131
vt 0.625000 0.677131
vt 0.375000 0.677131
vt 0.600000 0.677131
vt 0.575000 0.677131
vt 0.550000 0.677131
vt 0.525000 0.671234
vt 0.500000 0.671234
vt 0.475000 0.671234
vt 0.450000 0.671234
vt 0.425000 0.671234
vt 0.400000 0.671234
vt 0.625000 0.671234
vt 0.375000 0.671234
vt 0.600000 0.671234
vt 0.575000 0.671234
vt 0.550000 0.671234
vn -0.000169 0.587785 -0.809017
vn -0.000169 0.587785 -0.809017
vn -0.064077 0.586565 -0.807363
vn -0.064077 0.586565 -0.807363
vn -0.000000 -0.000000 -1.000000
vn -0.000000 -0.000000 -1.000000
vn -0.063909 -0.000019 -0.997956
vn -0.063908 -0.000019 -0.997956
vn 0.000169 -0.587785 -0.809018
vn 0.000169 -0.587785 -0.809017
vn -0.063739 -0.586601 -0.807364
vn -0.063739 -0.586602 -0.807364
vn 0.000274 -0.951057 -0.309017
vn 0.000274 -0.951057 -0.309017
vn -0.063635 -0.949131 -0.308385
vn -0.063635 -0.949131 -0.308385
vn 0.000274 -0.951057 0.309017
vn 0.000274 -0.951057 0.309017
vn -0.063635 -0.949131 0.308385
vn -0.063635 -0.949131 0.308385
vn 0.000169 -0.587785 0.809018
vn 0.000169 -0.587784 0.809018
vn -0.063739 -0.586601 0.807364
vn -0.063739 -0.586601 0.807364
vn -0.000000 0.000000 1.000000
vn -0.000000 0.000000 1.000000
vn -0.063908 -0.000018 0.997956
vn -0.063908 -0.000018 0.997956
vn -0.000170 0.587785 0.809017
vn -0.000170 0.587785 0.809017
vn -0.064077 0.586565 0.807363
vn -0.064077 0.586565 0.807363
vn -0.000274 0.951056 0.309018
vn -0.000274 0.951056 0.309018
vn -0.064182 0.949093 0.308387
vn -0.064182 0.949093 0.308387
vn -0.000274 0.951056 -0.309018
vn -0.000274 0.951056 -0.309018
vn -0.064182 0.949093 -0.308387
vn -0.064181 0.949093 -0.308387
vn 1.000000 0.000288 0.000000
vn 1.000000 0.000288 0.000000
vn 1.000000 0.000287 0.000000
vn 1.000000 0.000288 0.000000
vn 1.000000 0.000287 0.000000
vn 1.000000 0.000287 0.000000
vn 1.000000 0.000287 0.000000
vn 1.000000 0.000288 0.000000
vn 1.000000 0.000288 0.000000
vn 1.000000 0.000288 0.000000
vn 1.000000 0.000288 0.000000
vn -1.000000 -0.000288 0.000004
vn -1.000000 -0.000288 0.000005
vn -1.000000 -0.000291 0.000000
vn -1.000000 -0.000292 0.000005
vn -1.000000 -0.000295 -0.000000
vn -1.000000 -0.000293 0.000000
vn -1.000000 -0.000295 0.000000
vn -1.000000 -0.000292 -0.000005
vn -1.000000 -0.000288 -0.000004
vn -1.000000 -0.000288 -0.000002
vn -1.000000 -0.000288 0.000000
vn -0.018721 0.587677 -0.808879
vn -0.018721 0.587677 -0.808879
vn -0.018825 0.950887 -0.308966
vn -0.018825 0.950887 -0.308966
vn -0.018825 0.950887 0.308966
vn -0.018825 0.950887 0.308966
vn -0.018721 0.587677 0.808879
vn -0.018721 0.587677 0.808879
vn -0.018552 -0.000005 0.999828
vn -0.018552 -0.000005 0.999828
vn -0.018383 -0.587689 0.808878
vn -0.018383 -0.587689 0.808878
vn -0.018278 -0.950899 0.308961
vn -0.018278 -0.950899 0.308961
vn -0.018278 -0.950899 -0.308961
vn -0.018278 -0.950899 -0.308961
vn -0.018383 -0.587690 -0.808878
vn -0.018383 -0.587690 -0.808878
vn -0.018552 -0.000006 -0.999828
vn -0.018552 -0.000006 -0.999828
vn 0.025354 0.587600 -0.808755
vn 0.025354 0.587600 -0.808754
vn 0.025249 0.950753 -0.308919
vn 0.025249 0.950753 -0.308919
vn 0.025249 0.950753 0.308919
vn 0.025249 0.950753 0.308919
vn 0.025354 0.587599 0.808755
vn 0.025354 0.587600 0.808755
vn 0.025523 0.000007 0.999674
vn 0.025523 0.000007 0.999674
vn 0.025692 -0.587586 0.808754
vn 0.025692 -0.587586 0.808754
vn 0.025796 -0.950740 0.308913
vn 0.025796 -0.950740 0.308913
vn 0.025796 -0.950740 -0.308913
vn 0.025796 -0.950740 -0.308913
vn 0.025692 -0.587586 -0.808754
vn 0.025692 -0.587586 -0.808754
vn 0.025523 0.000007 -0.999674
vn 0.025523 0.000007 -0.999674
vn 0.197340 -0.576187 0.793137
vn 0.197340 -0.576187 0.793137
vn 0.000169 -0.587785 0.809018
vn 0.000169 -0.587785 0.809018
vn 0.197443 -0.932329 0.302950
vn 0.197443 -0.932329 0.302950
vn 0.000273 -0.951057 0.309017
vn 0.000273 -0.951057 0.309017
vn 0.197443 -0.932329 -0.302950
vn 0.197442 -0.932329 -0.302950
vn 0.000273 -0.951057 -0.309017
vn 0.000273 -0.951057 -0.309017
vn 0.197340 -0.576187 -0.793136
vn 0.197340 -0.576187 -0.793136
vn 0.000169 -0.587785 -0.809017
vn 0.000169 -0.587785 -0.809017
vn 0.197174 0.000056 -0.980369
vn 0.197173 0.000056 -0.980369
vn 0.000000 -0.000000 -1.000000
vn 0.000000 -0.000000 -1.000000
vn 0.197008 0.576300 -0.793137
vn 0.197009 0.576300 -0.793137
vn -0.000169 0.587783 -0.809019
vn -0.000169 0.587783 -0.809019
vn 0.196906 0.932443 -0.302950
vn 0.196906 0.932443 -0.302950
vn -0.000273 0.951057 -0.309017
vn -0.000273 0.951057 -0.309017
vn 0.196907 0.932442 0.302950
vn 0.196907 0.932442 0.302950
vn -0.000273 0.951056 0.309017
vn -0.000273 0.951056 0.309017
vn 0.197009 0.576300 0.793137
vn 0.197008 0.576300 0.793137
vn -0.000169 0.587783 0.809019
vn -0.000169 0.587783 0.809019
vn 0.197173 0.000057 0.980369
vn 0.197174 0.000057 0.980368
vn 0.000000 0.000000 1.000000
vn 0.000000 0.000000 1.000000
s 1
g polySurface6 pCylinder1
usemtl initialShadingGroup
f 1/1/1 2/2/2 23/3/3 24/4/4
s 2
f 2/2/5 3/5/6 32/6/7 23/3/8
s 3
f 3/5/9 4/7/10 31/8/11 32/6/12
s 4
f 4/7/13 5/9/14 30/10/15 31/8/16
s 5
f 5/9/17 6/11/18 29/12/19 30/10/20
s 6
f 6/11/21 7/13/22 28/14/23 29/12/24
s 7
f 7/13/25 8/15/26 27/16/27 28/14/28
s 8
f 8/15/29 9/17/30 26/18/31 27/16/32
s 9
f 9/17/33 10/19/34 25/20/35 26/18/36
s 10
f 10/19/37 1/21/38 24/22/39 25/20/40
s 11
f 2/23/41 1/24/42 21/25/43
f 3/26/44 2/23/41 21/25/43
f 4/27/45 3/26/44 21/25/43
f 5/28/46 4/27/45 21/25/43
f 6/29/47 5/28/46 21/25/43
f 7/30/48 6/29/47 21/25/43
f 8/31/49 7/30/48 21/25/43
f 9/32/50 8/31/49 21/25/43
f 10/33/51 9/32/50 21/25/43
f 1/24/42 10/33/51 21/25/43
s 12
f 11/34/52 12/35/53 22/36/54
f 12/35/53 13/37/55 22/36/54
f 13/37/55 14/38/56 22/36/54
f 14/38/56 15/39/57 22/36/54
f 15/39/57 16/40/58 22/36/54
f 16/40/58 17/41/59 22/36/54
f 17/41/59 18/42/60 22/36/54
f 18/42/60 19/43/61 22/36/54
f 19/43/61 20/44/62 22/36/54
f 20/44/62 11/34/52 22/36/54
s 1
f 24/4/4 23/3/3 33/45/63 34/46/64
s 10
f 25/20/40 24/22/39 34/47/65 35/48/66
s 9
f 26/18/36 25/20/35 35/48/67 36/49/68
s 8
f 27/16/32 26/18/31 36/49/69 37/50/70
s 7
f 28/14/28 27/16/27 37/50/71 38/51/72
s 6
f 29/12/24 28/14/23 38/51/73 39/52/74
s 5
f 30/10/20 29/12/19 39/52/75 40/53/76
s 4
f 31/8/16 30/10/15 40/53/77 41/54/78
s 3
f 32/6/12 31/8/11 41/54/79 42/55/80
s 2
f 23/3/8 32/6/7 42/55/81 33/45/82
s 1
f 34/46/64 33/45/63 58/83/83 59/85/84
s 10
f 35/48/66 34/47/65 59/84/85 60/86/86
s 9
f 36/49/68 35/48/67 60/86/87 61/87/88
s 8
f 37/50/70 36/49/69 61/87/89 62/88/90
s 7
f 38/51/72 37/50/71 62/88/91 53/78/92
s 6
f 39/52/74 38/51/73 53/78/93 54/79/94
s 5
f 40/53/76 39/52/75 54/79/95 55/80/96
s 4
f 41/54/78 40/53/77 55/80/97 56/81/98
s 3
f 42/55/80 41/54/79 56/81/99 57/82/100
s 2
f 33/45/82 42/55/81 57/82/101 58/83/102
s 6
f 44/68/103 43/67/104 17/62/105 16/63/106
s 5
f 45/69/107 44/68/108 16/63/109 15/64/110
s 4
f 46/70/111 45/69/112 15/64/113 14/65/114
s 3
f 47/71/115 46/70/116 14/65/117 13/66/118
s 2
f 48/72/119 47/71/120 13/66/121 12/56/122
s 1
f 49/74/123 48/72/124 12/56/125 11/57/126
s 10
f 50/75/127 49/73/128 11/58/129 20/59/130
s 9
f 51/76/131 50/75/132 20/59/133 19/60/134
s 8
f 52/77/135 51/76/136 19/60/137 18/61/138
s 7
f 43/67/139 52/77/140 18/61/141 17/62/142
s 6
f 54/79/94 53/78/93 43/67/104 44/68/103
s 5
f 55/80/96 54/79/95 44/68/108 45/69/107
s 4
f 56/81/98 55/80/97 45/69/112 46/70/111
s 3
f 57/82/100 56/81/99 46/70/116 47/71/115
s 2
f 58/83/102 57/82/101 47/71/120 48/72/119
s 1
f 59/85/84 58/83/83 48/72/124 49/74/123
s 10
f 60/86/86 59/84/85 49/73/128 50/75/127
s 9
f 61/87/88 60/86/87 50/75/132 51/76/131
s 8
f 62/88/90 61/87/89 51/76/136 52/77/135
s 7
f 53/78/92 62/88/91 52/77/140 43/67/139
