# This file uses centimeters as units for non-parametric coordinates.

mtllib Handle_4.mtl
g default
v 1.608520 0.582966 -0.149690
v 1.608556 0.455633 -0.242203
v 1.608602 0.298240 -0.242203
v 1.608638 0.216657 -0.149690
v 1.608652 0.168020 0.000000
v 1.608638 0.216657 0.149690
v 1.608602 0.298240 0.242203
v 1.608556 0.455633 0.242203
v 1.608520 0.582966 0.149690
v 1.608506 0.631603 0.000000
v -1.609581 0.596472 -0.134333
v -1.609548 0.482200 -0.217356
v -1.609507 0.340952 -0.217356
v -1.609474 0.226683 -0.134333
v -1.609462 0.183035 0.000000
v -1.609474 0.226683 0.134333
v -1.609507 0.340952 0.217356
v -1.609548 0.482200 0.217356
v -1.609581 0.596472 0.134333
v -1.609593 0.640119 0.000000
v 1.608579 0.376936 0.000000
v -1.609528 0.411579 0.000000
v 1.326751 0.455550 -0.242203
v 1.326715 0.582884 -0.149690
v 1.326701 0.631522 0.000000
v 1.326715 0.582884 0.149690
v 1.326751 0.455550 0.242203
v 1.326797 0.298158 0.242203
v 1.326833 0.216575 0.149690
v 1.326848 0.167937 0.000000
v 1.326833 0.216575 -0.149690
v 1.326797 0.298158 -0.242203
v 1.248729 0.446144 -0.176652
v 1.248702 0.539014 -0.109177
v 1.248692 0.574489 0.000000
v 1.248702 0.539014 0.109177
v 1.248729 0.446144 0.176652
v 1.248762 0.331347 0.176652
v 1.248788 0.238477 0.109177
v 1.248798 0.203004 0.000000
v 1.248788 0.238477 -0.109177
v 1.248762 0.331347 -0.176652
v 0.944382 0.316283 -0.176652
v 0.944356 0.409153 -0.109177
v 0.944346 0.444628 0.000000
v 0.944356 0.409153 0.109177
v 0.944382 0.316283 0.176652
v 0.944415 0.201486 0.176652
v 0.944442 0.108616 0.109177
v 0.944452 0.073143 0.000000
v 0.944442 0.108616 -0.109177
v 0.944415 0.201486 -0.176652
v 0.576636 0.202780 -0.144214
v 0.576614 0.278597 -0.089129
v 0.576606 0.307558 -0.000000
v 0.576614 0.278597 0.089129
v 0.576636 0.202780 0.144214
v 0.576663 0.109063 0.144214
v 0.576685 0.033246 0.089129
v 0.576693 0.004287 0.000000
v 0.576685 0.033246 -0.089129
v 0.576663 0.109063 -0.144214
v 0.070396 0.087862 -0.144214
v 0.070374 0.163679 -0.089129
v 0.070366 0.192640 -0.000000
v 0.070374 0.163679 0.089129
v 0.070396 0.087862 0.144214
v 0.070423 -0.005855 0.144214
v 0.070445 -0.081672 0.089129
v 0.070453 -0.110631 0.000000
v 0.070445 -0.081672 -0.089129
v 0.070423 -0.005855 -0.144214
v -0.453113 0.114197 -0.144214
v -0.453135 0.190015 -0.089129
v -0.453143 0.218976 -0.000000
v -0.453135 0.190015 0.089129
v -0.453113 0.114197 0.144214
v -0.453086 0.020481 0.144214
v -0.453064 -0.055336 0.089129
v -0.453056 -0.084295 0.000000
v -0.453064 -0.055336 -0.089129
v -0.453086 0.020481 -0.144214
v -1.159164 0.246424 0.144214
v -1.159137 0.152707 0.144214
v -1.159115 0.076890 0.089129
v -1.159107 0.047931 0.000000
v -1.159115 0.076890 -0.089129
v -1.159137 0.152707 -0.144214
v -1.159164 0.246424 -0.144214
v -1.159186 0.322242 -0.089129
v -1.159194 0.351202 -0.000000
v -1.159186 0.322242 0.089129
v -1.488806 0.375783 -0.217356
v -1.488839 0.490056 -0.134333
v -1.488851 0.533703 0.000000
v -1.488839 0.490056 0.134333
v -1.488806 0.375783 0.217356
v -1.488765 0.234536 0.217356
v -1.488732 0.120267 0.134333
v -1.488720 0.076620 0.000000
v -1.488732 0.120267 -0.134333
v -1.488765 0.234536 -0.217356
v 1.527723 0.455609 -0.242203
v 1.527687 0.582942 -0.149690
v 1.527673 0.631580 0.000000
v 1.527687 0.582942 0.149690
v 1.527723 0.455609 0.242203
v 1.527769 0.298216 0.242203
v 1.527805 0.216634 0.149690
v 1.527819 0.167996 0.000000
v 1.527805 0.216634 -0.149690
v 1.527769 0.298216 -0.242203
vt 0.375000 0.312500
vt 0.400000 0.312500
vt 0.400000 0.345420
vt 0.375000 0.345420
vt 0.425000 0.312500
vt 0.425000 0.345420
vt 0.450000 0.312500
vt 0.450000 0.345420
vt 0.475000 0.312500
vt 0.475000 0.345420
vt 0.500000 0.312500
vt 0.500000 0.345420
vt 0.525000 0.312500
vt 0.525000 0.345420
vt 0.550000 0.312500
vt 0.550000 0.345420
vt 0.575000 0.312500
vt 0.575000 0.345420
vt 0.600000 0.312500
vt 0.600000 0.345420
vt 0.625000 0.312500
vt 0.625000 0.345420
vt 0.548284 0.007647
vt 0.626409 0.064409
vt 0.500000 0.150000
vt 0.451716 0.007647
vt 0.373591 0.064409
vt 0.343750 0.156250
vt 0.373591 0.248091
vt 0.451716 0.304853
vt 0.548284 0.304853
vt 0.626409 0.248091
vt 0.656250 0.156250
vt 0.626409 0.935591
vt 0.548284 0.992353
vt 0.500000 0.837500
vt 0.451716 0.992353
vt 0.373591 0.935591
vt 0.343750 0.843750
vt 0.373591 0.751909
vt 0.451716 0.695147
vt 0.548284 0.695147
vt 0.626409 0.751909
vt 0.656250 0.843750
vt 0.400000 0.354535
vt 0.375000 0.354535
vt 0.625000 0.354535
vt 0.600000 0.354535
vt 0.575000 0.354535
vt 0.550000 0.354535
vt 0.525000 0.354535
vt 0.500000 0.354535
vt 0.475000 0.354535
vt 0.450000 0.354535
vt 0.425000 0.354535
vt 0.400000 0.688440
vt 0.375000 0.688440
vt 0.625000 0.688440
vt 0.600000 0.688440
vt 0.575000 0.688440
vt 0.550000 0.688440
vt 0.525000 0.688440
vt 0.500000 0.688440
vt 0.475000 0.688440
vt 0.450000 0.688440
vt 0.425000 0.688440
vt 0.400000 0.390090
vt 0.625000 0.390090
vt 0.375000 0.390090
vt 0.600000 0.390090
vt 0.575000 0.390090
vt 0.550000 0.390090
vt 0.525000 0.390090
vt 0.500000 0.390090
vt 0.475000 0.390090
vt 0.450000 0.390090
vt 0.425000 0.390090
vt 0.400000 0.433050
vt 0.625000 0.433050
vt 0.375000 0.433050
vt 0.600000 0.433050
vt 0.575000 0.433050
vt 0.550000 0.433050
vt 0.525000 0.433050
vt 0.500000 0.433050
vt 0.475000 0.433050
vt 0.450000 0.433050
vt 0.425000 0.433050
vt 0.400000 0.492190
vt 0.625000 0.492190
vt 0.375000 0.492190
vt 0.600000 0.492190
vt 0.575000 0.492190
vt 0.550000 0.492190
vt 0.525000 0.492190
vt 0.500000 0.492190
vt 0.475000 0.492190
vt 0.450000 0.492190
vt 0.425000 0.492190
vt 0.400000 0.553346
vt 0.625000 0.553346
vt 0.375000 0.553346
vt 0.600000 0.553346
vt 0.575000 0.553346
vt 0.550000 0.553346
vt 0.525000 0.553346
vt 0.500000 0.553346
vt 0.475000 0.553346
vt 0.450000 0.553346
vt 0.425000 0.553346
vt 0.550000 0.635827
vt 0.525000 0.635827
vt 0.500000 0.635827
vt 0.475000 0.635827
vt 0.450000 0.635827
vt 0.425000 0.635827
vt 0.400000 0.635827
vt 0.625000 0.635827
vt 0.375000 0.635827
vt 0.600000 0.635827
vt 0.575000 0.635827
vt 0.400000 0.674336
vt 0.625000 0.674336
vt 0.375000 0.674336
vt 0.600000 0.674336
vt 0.575000 0.674336
vt 0.550000 0.674336
vt 0.525000 0.674336
vt 0.500000 0.674336
vt 0.475000 0.674336
vt 0.450000 0.674336
vt 0.425000 0.674336
vt 0.400000 0.321943
vt 0.625000 0.321943
vt 0.375000 0.321943
vt 0.600000 0.321943
vt 0.575000 0.321943
vt 0.550000 0.321943
vt 0.525000 0.321943
vt 0.500000 0.321943
vt 0.475000 0.321943
vt 0.450000 0.321943
vt 0.425000 0.321943
vn -0.000174 0.587786 -0.809017
vn -0.000174 0.587785 -0.809017
vn -0.000171 0.587784 -0.809018
vn -0.000171 0.587784 -0.809018
vn -0.000000 -0.000000 -1.000000
vn -0.000000 -0.000000 -1.000000
vn -0.000000 -0.000000 -1.000000
vn -0.000000 -0.000000 -1.000000
vn 0.000216 -0.750025 -0.661409
vn 0.000216 -0.750025 -0.661409
vn 0.000218 -0.750026 -0.661409
vn 0.000218 -0.750026 -0.661409
vn 0.000276 -0.951057 -0.309017
vn 0.000276 -0.951057 -0.309017
vn 0.000277 -0.951056 -0.309019
vn 0.000277 -0.951056 -0.309019
vn 0.000277 -0.951057 0.309017
vn 0.000277 -0.951057 0.309017
vn 0.000277 -0.951056 0.309019
vn 0.000277 -0.951056 0.309019
vn 0.000216 -0.750025 0.661410
vn 0.000216 -0.750025 0.661410
vn 0.000217 -0.750026 0.661409
vn 0.000217 -0.750026 0.661409
vn -0.000000 0.000000 1.000000
vn -0.000000 0.000000 1.000000
vn -0.000000 0.000000 1.000000
vn -0.000000 0.000000 1.000000
vn -0.000174 0.587785 0.809017
vn -0.000174 0.587785 0.809017
vn -0.000171 0.587784 0.809018
vn -0.000171 0.587784 0.809018
vn -0.000272 0.951056 0.309019
vn -0.000272 0.951056 0.309019
vn -0.000274 0.951056 0.309019
vn -0.000274 0.951056 0.309019
vn -0.000270 0.951056 -0.309019
vn -0.000270 0.951056 -0.309019
vn -0.000274 0.951056 -0.309019
vn -0.000274 0.951056 -0.309019
vn 1.000000 0.000288 -0.000000
vn 1.000000 0.000286 0.000000
vn 1.000000 0.000315 0.000000
vn 1.000000 0.000333 -0.000013
vn 1.000000 0.000381 -0.000009
vn 1.000000 0.000350 -0.000000
vn 1.000000 0.000381 0.000009
vn 1.000000 0.000333 0.000013
vn 1.000000 0.000288 0.000000
vn 1.000000 0.000286 0.000001
vn 1.000000 0.000286 0.000001
vn -1.000000 -0.000288 0.000001
vn -1.000000 -0.000288 0.000001
vn -1.000000 -0.000288 0.000000
vn -1.000000 -0.000289 0.000000
vn -1.000000 -0.000289 -0.000001
vn -1.000000 -0.000288 -0.000000
vn -1.000000 -0.000289 0.000001
vn -1.000000 -0.000289 -0.000001
vn -1.000000 -0.000288 -0.000000
vn -1.000000 -0.000288 -0.000000
vn -1.000000 -0.000288 0.000000
vn -0.168230 0.579375 -0.797511
vn -0.140325 0.581942 -0.801032
vn -0.331384 0.554515 -0.763346
vn -0.429002 0.530871 -0.730844
vn -0.146060 0.940852 -0.305719
vn -0.135402 0.942293 -0.306186
vn -0.430217 0.858527 -0.279006
vn -0.444330 0.852000 -0.276886
vn -0.135403 0.942293 0.306186
vn -0.146061 0.940852 0.305719
vn -0.444332 0.852000 0.276886
vn -0.430219 0.858526 0.279006
vn -0.140325 0.581941 0.801032
vn -0.168230 0.579375 0.797511
vn -0.429002 0.530871 0.730845
vn -0.331384 0.554515 0.763346
vn -0.158397 -0.000045 0.987376
vn -0.192900 -0.000055 0.981218
vn -0.509695 -0.000146 0.860355
vn -0.145240 -0.000042 0.989396
vn -0.225396 -0.709034 0.668183
vn -0.161008 -0.724823 0.669857
vn -0.152806 -0.617518 0.771571
vn 0.118331 -0.595723 0.794425
vn -0.090285 -0.947174 0.307750
vn -0.063501 -0.949138 0.308391
vn 0.106884 -0.945607 0.307252
vn 0.206933 -0.930467 0.302341
vn -0.063500 -0.949138 -0.308391
vn -0.090284 -0.947174 -0.307750
vn 0.206934 -0.930467 -0.302341
vn 0.106885 -0.945607 -0.307251
vn -0.161007 -0.724823 -0.669857
vn -0.225395 -0.709034 -0.668182
vn 0.118331 -0.595723 -0.794425
vn -0.152806 -0.617518 -0.771571
vn -0.192900 -0.000056 -0.981218
vn -0.158397 -0.000046 -0.987375
vn -0.145240 -0.000042 -0.989397
vn -0.509695 -0.000147 -0.860355
vn -0.244672 0.569879 -0.784458
vn -0.243730 0.570019 -0.784649
vn -0.351140 0.890482 -0.289383
vn -0.358455 0.887842 -0.288526
vn -0.358455 0.887841 0.288526
vn -0.351140 0.890482 0.289383
vn -0.243730 0.570019 0.784649
vn -0.244672 0.569879 0.784458
vn -0.011422 -0.000003 0.999935
vn -0.081821 -0.000023 0.996647
vn 0.216881 -0.573760 0.789787
vn 0.108572 -0.584296 0.804245
vn 0.304014 -0.906035 0.294410
vn 0.256566 -0.919217 0.298688
vn 0.256565 -0.919217 -0.298688
vn 0.304013 -0.906035 -0.294410
vn 0.108572 -0.584296 -0.804245
vn 0.216881 -0.573760 -0.789787
vn -0.081821 -0.000024 -0.996647
vn -0.011422 -0.000004 -0.999935
vn -0.159864 0.580200 -0.798631
vn -0.214395 0.574082 -0.790231
vn -0.259443 0.918480 -0.298470
vn -0.279396 0.913170 -0.296747
vn -0.279395 0.913170 0.296747
vn -0.259442 0.918480 0.298470
vn -0.214395 0.574082 0.790231
vn -0.159864 0.580200 0.798631
vn -0.074689 -0.000021 0.997207
vn -0.010810 -0.000003 0.999942
vn 0.090262 -0.585374 0.805723
vn 0.123595 -0.583260 0.802827
vn 0.190812 -0.933579 0.303349
vn 0.198282 -0.932170 0.302892
vn 0.198282 -0.932170 -0.302892
vn 0.190811 -0.933579 -0.303349
vn 0.123595 -0.583260 -0.802827
vn 0.090262 -0.585375 -0.805723
vn -0.010810 -0.000003 -0.999942
vn -0.074689 -0.000022 -0.997207
vn -0.031342 0.587493 -0.808622
vn -0.058866 0.586758 -0.807620
vn -0.074658 0.948397 -0.308172
vn -0.086745 0.947466 -0.307870
vn -0.086745 0.947466 0.307870
vn -0.074658 0.948397 0.308172
vn -0.058866 0.586758 0.807620
vn -0.031342 0.587493 0.808622
vn 0.000000 0.000000 1.000000
vn 0.000000 0.000000 1.000000
vn 0.058867 -0.586760 0.807619
vn 0.031342 -0.587495 0.808621
vn 0.086746 -0.947471 0.307855
vn 0.074659 -0.948402 0.308156
vn 0.074659 -0.948402 -0.308156
vn 0.086746 -0.947471 -0.307855
vn 0.031342 -0.587495 -0.808620
vn 0.058867 -0.586760 -0.807619
vn 0.000000 -0.000000 -1.000000
vn 0.000000 -0.000000 -1.000000
vn 0.057157 0.586835 -0.807686
vn 0.088113 0.585514 -0.805859
vn 0.112701 0.944998 -0.307045
vn 0.129681 0.943027 -0.306403
vn 0.129681 0.943027 0.306403
vn 0.112701 0.944998 0.307045
vn 0.088113 0.585515 0.805859
vn 0.057157 0.586835 0.807686
vn -0.000000 -0.000000 1.000000
vn -0.000000 -0.000000 1.000000
vn -0.088114 -0.585520 0.805855
vn -0.057157 -0.586840 0.807683
vn -0.129681 -0.943031 0.306392
vn -0.112702 -0.945002 0.307034
vn -0.112702 -0.945002 -0.307034
vn -0.129681 -0.943031 -0.306392
vn -0.057157 -0.586840 -0.807683
vn -0.088114 -0.585520 -0.805855
vn -0.000000 -0.000000 -1.000000
vn -0.000000 -0.000000 -1.000000
vn 0.173686 0.578881 -0.796699
vn 0.287111 0.563088 -0.774918
vn 0.279631 0.913123 -0.296669
vn 0.320580 0.900869 -0.292682
vn 0.320580 0.900869 0.292683
vn 0.279631 0.913123 0.296669
vn 0.287111 0.563088 0.774919
vn 0.173687 0.578882 0.796699
vn 0.167386 0.000048 0.985891
vn 0.031973 0.000009 0.999489
vn -0.011505 -0.587754 0.808958
vn -0.094195 -0.585194 0.805403
vn -0.126366 -0.943438 0.306524
vn -0.147811 -0.940615 0.305605
vn -0.147811 -0.940616 -0.305605
vn -0.126365 -0.943438 -0.306524
vn -0.094195 -0.585194 -0.805404
vn -0.011504 -0.587754 -0.808958
vn 0.031973 0.000009 -0.999489
vn 0.167386 0.000048 -0.985891
vn 0.064609 0.000019 0.997911
vn 0.212631 0.000061 0.977132
vn -0.373293 -0.545373 0.750480
vn -0.019117 -0.587687 0.808862
vn -0.455181 -0.846833 0.275108
vn -0.253417 -0.920019 0.298905
vn -0.253418 -0.920019 -0.298905
vn -0.455182 -0.846832 -0.275108
vn -0.019117 -0.587687 -0.808862
vn -0.373293 -0.545373 -0.750480
vn 0.212631 0.000061 -0.977132
vn 0.064608 0.000018 -0.997911
vn 0.389975 0.541317 -0.744913
vn 0.425004 0.532133 -0.732261
vn 0.518221 0.813403 -0.264242
vn 0.545089 0.797360 -0.259027
vn 0.545089 0.797360 0.259027
vn 0.518220 0.813402 0.264242
vn 0.425004 0.532133 0.732261
vn 0.389975 0.541316 0.744914
vn 0.460044 0.521974 -0.718264
vn 0.460044 0.521974 -0.718264
vn 0.642399 0.728880 -0.236767
vn 0.642399 0.728880 -0.236767
vn 0.642399 0.728880 0.236766
vn 0.642399 0.728880 0.236766
vn 0.460044 0.521974 0.718264
vn 0.460044 0.521974 0.718264
vn -0.000000 -0.000000 1.000000
vn -0.000000 -0.000000 1.000000
vn -0.460051 -0.521983 0.718252
vn -0.460051 -0.521983 0.718252
vn -0.642398 -0.728880 0.236767
vn -0.642398 -0.728881 0.236767
vn -0.642399 -0.728879 -0.236767
vn -0.642399 -0.728880 -0.236767
vn -0.460051 -0.521983 -0.718253
vn -0.460051 -0.521983 -0.718253
vn -0.000000 -0.000000 -1.000000
vn -0.000000 -0.000000 -1.000000
s 1
g polySurface12 polySurface7 polySurface5 pCylinder1
usemtl initialShadingGroup
f 1/1/1 2/2/2 103/133/3 104/135/4
s 2
f 2/2/5 3/5/6 112/143/7 103/133/8
s 3
f 3/5/9 4/7/10 111/142/11 112/143/12
s 4
f 4/7/13 5/9/14 110/141/15 111/142/16
s 5
f 5/9/17 6/11/18 109/140/19 110/141/20
s 6
f 6/11/21 7/13/22 108/139/23 109/140/24
s 7
f 7/13/25 8/15/26 107/138/27 108/139/28
s 8
f 8/15/29 9/17/30 106/137/31 107/138/32
s 9
f 9/17/33 10/19/34 105/136/35 106/137/36
s 10
f 10/19/37 1/21/38 104/134/39 105/136/40
s 11
f 2/23/41 1/24/42 21/25/43
f 3/26/44 2/23/41 21/25/43
f 4/27/45 3/26/44 21/25/43
f 5/28/46 4/27/45 21/25/43
f 6/29/47 5/28/46 21/25/43
f 7/30/48 6/29/47 21/25/43
f 8/31/49 7/30/48 21/25/43
f 9/32/50 8/31/49 21/25/43
f 10/33/51 9/32/50 21/25/43
f 1/24/42 10/33/51 21/25/43
s 12
f 11/34/52 12/35/53 22/36/54
f 12/35/53 13/37/55 22/36/54
f 13/37/55 14/38/56 22/36/54
f 14/38/56 15/39/57 22/36/54
f 15/39/57 16/40/58 22/36/54
f 16/40/58 17/41/59 22/36/54
f 17/41/59 18/42/60 22/36/54
f 18/42/60 19/43/61 22/36/54
f 19/43/61 20/44/62 22/36/54
f 20/44/62 11/34/52 22/36/54
s 1
f 24/4/63 23/3/64 33/45/65 34/46/66
s 10
f 25/20/67 24/22/68 34/47/69 35/48/70
s 9
f 26/18/71 25/20/72 35/48/73 36/49/74
s 8
f 27/16/75 26/18/76 36/49/77 37/50/78
s 7
f 28/14/79 27/16/80 37/50/81 38/51/82
s 6
f 29/12/83 28/14/84 38/51/85 39/52/86
s 5
f 30/10/87 29/12/88 39/52/89 40/53/90
s 4
f 31/8/91 30/10/92 40/53/93 41/54/94
s 3
f 32/6/95 31/8/96 41/54/97 42/55/98
s 2
f 23/3/99 32/6/100 42/55/101 33/45/102
s 1
f 34/46/66 33/45/65 43/67/103 44/69/104
s 10
f 35/48/70 34/47/69 44/68/105 45/70/106
s 9
f 36/49/74 35/48/73 45/70/107 46/71/108
s 8
f 37/50/78 36/49/77 46/71/109 47/72/110
s 7
f 38/51/82 37/50/81 47/72/111 48/73/112
s 6
f 39/52/86 38/51/85 48/73/113 49/74/114
s 5
f 40/53/90 39/52/89 49/74/115 50/75/116
s 4
f 41/54/94 40/53/93 50/75/117 51/76/118
s 3
f 42/55/98 41/54/97 51/76/119 52/77/120
s 2
f 33/45/102 42/55/101 52/77/121 43/67/122
s 1
f 44/69/104 43/67/103 53/78/123 54/80/124
s 10
f 45/70/106 44/68/105 54/79/125 55/81/126
s 9
f 46/71/108 45/70/107 55/81/127 56/82/128
s 8
f 47/72/110 46/71/109 56/82/129 57/83/130
s 7
f 48/73/112 47/72/111 57/83/131 58/84/132
s 6
f 49/74/114 48/73/113 58/84/133 59/85/134
s 5
f 50/75/116 49/74/115 59/85/135 60/86/136
s 4
f 51/76/118 50/75/117 60/86/137 61/87/138
s 3
f 52/77/120 51/76/119 61/87/139 62/88/140
s 2
f 43/67/122 52/77/121 62/88/141 53/78/142
s 1
f 54/80/124 53/78/123 63/89/143 64/91/144
s 10
f 55/81/126 54/79/125 64/90/145 65/92/146
s 9
f 56/82/128 55/81/127 65/92/147 66/93/148
s 8
f 57/83/130 56/82/129 66/93/149 67/94/150
s 7
f 58/84/132 57/83/131 67/94/151 68/95/152
s 6
f 59/85/134 58/84/133 68/95/153 69/96/154
s 5
f 60/86/136 59/85/135 69/96/155 70/97/156
s 4
f 61/87/138 60/86/137 70/97/157 71/98/158
s 3
f 62/88/140 61/87/139 71/98/159 72/99/160
s 2
f 53/78/142 62/88/141 72/99/161 63/89/162
s 1
f 64/91/144 63/89/143 73/100/163 74/102/164
s 10
f 65/92/146 64/90/145 74/101/165 75/103/166
s 9
f 66/93/148 65/92/147 75/103/167 76/104/168
s 8
f 67/94/150 66/93/149 76/104/169 77/105/170
s 7
f 68/95/152 67/94/151 77/105/171 78/106/172
s 6
f 69/96/154 68/95/153 78/106/173 79/107/174
s 5
f 70/97/156 69/96/155 79/107/175 80/108/176
s 4
f 71/98/158 70/97/157 80/108/177 81/109/178
s 3
f 72/99/160 71/98/159 81/109/179 82/110/180
s 2
f 63/89/162 72/99/161 82/110/181 73/100/182
s 1
f 74/102/164 73/100/163 89/117/183 90/119/184
s 10
f 75/103/166 74/101/165 90/118/185 91/120/186
s 9
f 76/104/168 75/103/167 91/120/187 92/121/188
s 8
f 77/105/170 76/104/169 92/121/189 83/111/190
s 7
f 78/106/172 77/105/171 83/111/191 84/112/192
s 6
f 79/107/174 78/106/173 84/112/193 85/113/194
s 5
f 80/108/176 79/107/175 85/113/195 86/114/196
s 4
f 81/109/178 80/108/177 86/114/197 87/115/198
s 3
f 82/110/180 81/109/179 87/115/199 88/116/200
s 2
f 73/100/182 82/110/181 88/116/201 89/117/202
s 7
f 84/112/192 83/111/191 97/127/203 98/128/204
s 6
f 85/113/194 84/112/193 98/128/205 99/129/206
s 5
f 86/114/196 85/113/195 99/129/207 100/130/208
s 4
f 87/115/198 86/114/197 100/130/209 101/131/210
s 3
f 88/116/200 87/115/199 101/131/211 102/132/212
s 2
f 89/117/202 88/116/201 102/132/213 93/122/214
s 1
f 90/119/184 89/117/183 93/122/215 94/124/216
s 10
f 91/120/186 90/118/185 94/123/217 95/125/218
s 9
f 92/121/188 91/120/187 95/125/219 96/126/220
s 8
f 83/111/190 92/121/189 96/126/221 97/127/222
s 1
f 94/124/216 93/122/215 12/56/223 11/57/224
s 10
f 95/125/218 94/123/217 11/58/225 20/59/226
s 9
f 96/126/220 95/125/219 20/59/227 19/60/228
s 8
f 97/127/222 96/126/221 19/60/229 18/61/230
s 7
f 98/128/204 97/127/203 18/61/231 17/62/232
s 6
f 99/129/206 98/128/205 17/62/233 16/63/234
s 5
f 100/130/208 99/129/207 16/63/235 15/64/236
s 4
f 101/131/210 100/130/209 15/64/237 14/65/238
s 3
f 102/132/212 101/131/211 14/65/239 13/66/240
s 2
f 93/122/214 102/132/213 13/66/241 12/56/242
s 1
f 104/135/4 103/133/3 23/3/64 24/4/63
s 10
f 105/136/40 104/134/39 24/22/68 25/20/67
s 9
f 106/137/36 105/136/35 25/20/72 26/18/71
s 8
f 107/138/32 106/137/31 26/18/76 27/16/75
s 7
f 108/139/28 107/138/27 27/16/80 28/14/79
s 6
f 109/140/24 108/139/23 28/14/84 29/12/83
s 5
f 110/141/20 109/140/19 29/12/88 30/10/87
s 4
f 111/142/16 110/141/15 30/10/92 31/8/91
s 3
f 112/143/12 111/142/11 31/8/96 32/6/95
s 2
f 103/133/8 112/143/7 32/6/100 23/3/99
