# This file uses centimeters as units for non-parametric coordinates.

mtllib Mid_2.mtl
g default
v -0.099441 -0.801235 0.192635
v -0.098755 -0.776363 0.201105
v -0.119106 -0.775554 0.192635
v 0.214138 -0.777200 0.193178
v 0.193790 -0.776363 0.201105
v 0.193127 -0.801235 0.193178
v -0.098627 0.776363 0.201105
v -0.100149 0.801235 0.192920
v -0.119034 0.776428 0.192920
v 0.214300 0.776428 0.192920
v 0.193181 0.801235 0.193200
v 0.193901 0.776363 0.201105
v -0.119034 0.776428 -0.192920
v -0.099375 0.801235 -0.192609
v -0.098627 0.776363 -0.201105
v 0.193901 0.776363 -0.201105
v 0.192485 0.801235 -0.192920
v 0.214300 0.776428 -0.192920
v -0.098755 -0.776363 -0.201105
v -0.100149 -0.801235 -0.192920
v -0.119152 -0.776418 -0.192920
v 0.214181 -0.776418 -0.192920
v 0.193127 -0.801235 -0.193178
v 0.193790 -0.776363 -0.201105
v -0.104679 -0.509566 0.192926
v -0.084222 -0.509419 0.201105
v -0.086601 -0.474258 0.201105
v -0.107554 -0.474556 0.192909
v 0.225795 -0.474626 0.192942
v 0.204516 -0.474133 0.201105
v 0.208259 -0.509381 0.201105
v 0.228655 -0.509549 0.192934
v -0.086428 0.499470 -0.201105
v -0.107311 0.499717 -0.192910
v -0.104763 0.534765 -0.192925
v -0.084306 0.534632 -0.201105
v 0.226036 0.499782 -0.192941
v 0.204879 0.499357 -0.201105
v 0.208165 0.534602 -0.201105
v 0.228571 0.534746 -0.192933
v 0.226036 0.499782 0.192941
v 0.228571 0.534746 0.192933
v 0.208165 0.534602 0.201105
v 0.204879 0.499357 0.201105
v -0.086428 0.499470 0.201105
v -0.084306 0.534632 0.201105
v -0.104763 0.534765 0.192925
v -0.107311 0.499717 0.192910
v -0.160928 0.310283 -0.201105
v -0.181262 0.310144 -0.192926
v -0.177696 0.344998 -0.192937
v -0.156521 0.345505 -0.201105
v 0.152072 0.310144 -0.192926
v 0.131662 0.310217 -0.201105
v 0.134802 0.345373 -0.201105
v 0.155651 0.345062 -0.192907
v 0.152072 -0.297516 0.192926
v 0.131656 -0.297603 0.201105
v 0.134974 -0.332758 0.201105
v 0.155894 -0.332397 0.192906
v -0.177455 -0.332328 0.192939
v -0.156158 -0.332899 0.201105
v -0.160928 -0.297673 0.201105
v -0.181262 -0.297516 0.192926
v -0.086601 -0.474258 -0.201105
v -0.084222 -0.509419 -0.201105
v -0.104679 -0.509566 -0.192926
v -0.107554 -0.474556 -0.192909
v 0.225795 -0.474626 -0.192942
v 0.228655 -0.509549 -0.192934
v 0.208259 -0.509381 -0.201105
v 0.204516 -0.474133 -0.201105
v 0.152072 0.310144 0.192926
v 0.155651 0.345062 0.192907
v 0.134802 0.345373 0.201105
v 0.131662 0.310217 0.201105
v -0.160928 0.310283 0.201105
v -0.156521 0.345505 0.201105
v -0.177696 0.344998 0.192937
v -0.181262 0.310144 0.192926
v -0.156158 -0.332899 -0.201105
v -0.177455 -0.332328 -0.192939
v -0.181262 -0.297516 -0.192926
v -0.160928 -0.297673 -0.201105
v 0.155894 -0.332397 -0.192906
v 0.134974 -0.332758 -0.201105
v 0.131656 -0.297603 -0.201105
v 0.152072 -0.297516 -0.192926
vt 0.390793 0.994736
vt 0.376045 0.994736
vt 0.376010 0.755087
vt 0.390793 -0.000000
vt 0.390296 0.003880
vt 0.625000 0.995092
vt 0.610219 0.995073
vt 0.625000 0.756072
vt 0.629927 0.003750
vt 0.390302 0.246120
vt 0.390262 0.255087
vt 0.376099 0.494913
vt 0.630087 0.246130
vt 0.609698 0.246120
vt 0.625000 0.256159
vt 0.125000 0.243706
vt 0.390843 0.494719
vt 0.609738 0.494913
vt 0.625000 0.503870
vt 0.375000 0.746128
vt 0.390296 0.746120
vt 0.610219 0.754927
vt 0.609704 0.746120
vt 0.625000 0.704494
vt 0.130084 0.045503
vt 0.390337 0.045526
vt 0.609696 0.045532
vt 0.390765 0.051011
vt 0.630079 0.045506
vt 0.869921 0.045506
vt 0.630074 0.050954
vt 0.390700 0.547078
vt 0.390337 0.541593
vt 0.609689 0.541597
vt 0.125000 0.205658
vt 0.130094 0.202960
vt 0.369915 0.208428
vt 0.869925 0.202971
vt 0.869921 0.208425
vt 0.630079 0.208425
vt 0.625000 0.547029
vt 0.609689 0.208403
vt 0.390337 0.208408
vt 0.369906 0.202960
vt 0.390250 0.576593
vt 0.390803 0.571098
vt 0.609315 0.571119
vt 0.125000 0.173407
vt 0.125000 0.078560
vt 0.130084 0.173385
vt 0.369923 0.178823
vt 0.869916 0.173385
vt 0.869904 0.178833
vt 0.630096 0.178833
vt 0.625000 0.576615
vt 0.625000 0.671415
vt 0.630096 0.073143
vt 0.869904 0.073143
vt 0.869916 0.078585
vt 0.630084 0.078585
vt 0.630084 0.173385
vt 0.609688 0.078571
vt 0.390877 0.073065
vt 0.130084 0.078585
vt 0.390251 0.078560
vt 0.369916 0.173385
vt 0.125000 0.048277
vt 0.130094 0.050965
vt 0.130076 0.073154
vt 0.125000 0.067131
vt 0.390765 0.698989
vt 0.609696 0.704468
vt 0.625000 0.699046
vt 0.609123 0.698969
vt 0.625000 0.676857
vt 0.609315 0.178881
vt 0.390803 0.178902
vt 0.390250 0.173407
vt 0.390251 0.671440
vt 0.609688 0.671429
vt 0.609250 0.676913
vt 0.609704 0.003880
vt 0.610259 0.254914
vt 0.390337 0.704474
vt 0.390262 0.755087
vt 0.869913 0.003872
vt 0.130087 0.003872
vt 0.369736 0.004006
vt 0.369916 0.045503
vt 0.130085 0.208428
vt 0.369913 0.246130
vt 0.130087 0.246130
vt 0.390302 0.503880
vt 0.609698 0.503880
vt 0.869913 0.246130
vt 0.609124 0.051031
vt 0.609250 0.073087
vt 0.369906 0.050965
vt 0.369924 0.073154
vt 0.390877 0.676935
vt 0.869926 0.050954
vt 0.609198 0.202904
vt 0.390701 0.202922
vt 0.130077 0.178823
vt 0.609199 0.547096
vt 0.630075 0.202971
vt 0.609693 0.173397
vt 0.369916 0.078585
vt 0.609693 0.576603
vt 0.610219 0.000000
vt 0.376099 0.255087
vt 0.625000 0.494935
vt 0.625000 0.746128
vt 0.125000 0.205988
vt 0.621747 0.544343
vt 0.625000 0.541575
vt 0.125000 0.180024
vt 0.125000 0.184714
vt 0.625000 0.573851
vt 0.625000 0.571167
vt 0.375000 0.704497
vt 0.375000 0.701723
vt 0.621621 0.701723
vt 0.125000 0.071763
vt 0.625000 0.674181
vn -0.793961 -0.607968 0.001459
vn -0.793960 -0.607968 0.001459
vn -0.793961 -0.607968 0.001459
vn -0.793961 -0.607968 0.001459
vn -0.000881 -0.313032 0.949742
vn -0.000881 -0.313032 0.949742
vn -0.000881 -0.313032 0.949742
vn -0.000881 -0.313032 0.949742
vn -0.377410 0.020004 0.925830
vn -0.377410 0.020004 0.925830
vn -0.376296 0.014563 0.926385
vn -0.376232 0.014252 0.926416
vn 0.757777 -0.652513 -0.000619
vn 0.757777 -0.652513 -0.000619
vn 0.757777 -0.652513 -0.000619
vn 0.757777 -0.652513 -0.000619
vn 0.366974 -0.019470 0.930027
vn 0.366974 -0.019470 0.930027
vn 0.366825 -0.013449 0.930193
vn 0.366805 -0.012666 0.930212
vn -0.371781 -0.021982 0.928060
vn -0.371781 -0.021982 0.928060
vn -0.371330 -0.015961 0.928364
vn -0.371338 -0.016056 0.928359
vn -0.000454 0.307741 0.951470
vn -0.000454 0.307741 0.951470
vn -0.000454 0.307741 0.951470
vn -0.000454 0.307741 0.951470
vn -0.789696 0.613498 -0.000793
vn -0.789696 0.613498 -0.000793
vn -0.789696 0.613498 -0.000793
vn -0.789696 0.613498 -0.000793
vn 0.371883 0.021975 0.928020
vn 0.371883 0.021975 0.928020
vn 0.371148 0.014946 0.928453
vn 0.371201 0.015443 0.928424
vn 0.756178 0.654366 -0.000681
vn 0.756178 0.654366 -0.000681
vn 0.756178 0.654366 -0.000681
vn 0.756178 0.654366 -0.000681
vn -0.371781 -0.021982 -0.928060
vn -0.371781 -0.021982 -0.928060
vn -0.371338 -0.016056 -0.928359
vn -0.371330 -0.015961 -0.928364
vn -0.000505 0.317921 -0.948117
vn -0.000505 0.317921 -0.948117
vn -0.000505 0.317921 -0.948117
vn -0.000505 0.317921 -0.948117
vn 0.371883 0.021975 -0.928020
vn 0.371883 0.021975 -0.928020
vn 0.371201 0.015443 -0.928424
vn 0.371148 0.014946 -0.928453
vn -0.371844 0.020197 -0.928075
vn -0.371844 0.020197 -0.928075
vn -0.371341 0.014415 -0.928384
vn -0.371369 0.014730 -0.928368
vn -0.000419 -0.308118 -0.951348
vn -0.000419 -0.308118 -0.951348
vn -0.000419 -0.308118 -0.951348
vn -0.000419 -0.308118 -0.951348
vn 0.372031 -0.020193 -0.928001
vn 0.372031 -0.020193 -0.928001
vn 0.371225 -0.013302 -0.928448
vn 0.371319 -0.014098 -0.928398
vn -0.999264 0.038353 -0.000000
vn -0.925064 -0.379811 0.000000
vn -0.925064 -0.379811 0.000000
vn -0.999263 0.038376 -0.000000
vn 0.000000 0.000000 1.000000
vn 0.000000 0.000000 1.000000
vn 0.000000 0.000000 1.000000
vn 0.000000 0.000000 1.000000
vn -0.358180 -0.158470 0.920106
vn -0.361666 -0.118367 0.924763
vn -0.357767 -0.162001 0.919651
vn -0.361059 -0.122218 0.924500
vn 0.925013 0.379934 0.000000
vn 0.999259 -0.038493 0.000000
vn 0.999260 -0.038472 0.000000
vn 0.925013 0.379934 0.000000
vn 0.357707 0.160038 0.920018
vn 0.360772 0.119296 0.924993
vn 0.357981 0.160318 0.919863
vn 0.361723 0.121009 0.924399
vn 0.000000 0.000000 -1.000000
vn 0.000000 0.000000 -1.000000
vn 0.000000 0.000000 -1.000000
vn 0.000000 0.000000 -1.000000
vn -0.359970 0.148024 -0.921146
vn -0.362730 0.114159 -0.924875
vn -0.359631 0.151267 -0.920752
vn -0.362256 0.117812 -0.924603
vn -0.999103 -0.042337 0.000000
vn -0.933443 0.358726 0.000000
vn -0.933443 0.358726 0.000000
vn -0.999103 -0.042337 0.000000
vn 0.933402 -0.358833 0.000000
vn 0.999102 0.042379 0.000000
vn 0.999102 0.042379 0.000000
vn 0.933402 -0.358833 0.000000
vn 0.359579 -0.149271 -0.921098
vn 0.361971 -0.114903 -0.925081
vn 0.359805 -0.149906 -0.920906
vn 0.362805 -0.116796 -0.924517
vn 0.361971 -0.114903 0.925081
vn 0.359579 -0.149270 0.921098
vn 0.362805 -0.116796 0.924517
vn 0.359805 -0.149906 0.920906
vn 0.000000 0.000000 1.000000
vn 0.000000 0.000000 1.000000
vn 0.000000 0.000000 1.000000
vn 0.000000 0.000000 1.000000
vn -0.362730 0.114159 0.924875
vn -0.359970 0.148024 0.921146
vn -0.362256 0.117812 0.924603
vn -0.359630 0.151267 0.920752
vn 0.000000 0.000000 -1.000000
vn 0.000000 0.000000 -1.000000
vn 0.000000 0.000000 -1.000000
vn 0.000000 0.000000 -1.000000
vn -0.372896 0.001902 -0.927871
vn -0.372765 0.002774 -0.927922
vn -0.372702 -0.003020 -0.927946
vn -0.372860 -0.002017 -0.927885
vn -0.931620 0.363434 0.000000
vn -0.999985 0.005552 0.000000
vn -0.999985 0.005552 0.000000
vn -0.931620 0.363434 0.000000
vn 0.999985 -0.005565 0.000000
vn 0.931654 -0.363346 0.000000
vn 0.931654 -0.363346 0.000000
vn 0.999985 -0.005565 0.000000
vn 0.371782 -0.001644 -0.928318
vn 0.371725 -0.002256 -0.928340
vn 0.371680 0.002416 -0.928358
vn 0.371753 0.001728 -0.928330
vn 0.999982 0.005943 0.000000
vn 0.923223 0.384264 0.000000
vn 0.923223 0.384264 0.000000
vn 0.999982 0.005943 0.000000
vn 0.371753 0.001728 0.928330
vn 0.371680 0.002416 0.928358
vn 0.371725 -0.002256 0.928340
vn 0.371782 -0.001644 0.928318
vn 0.000000 0.000000 1.000000
vn 0.000000 0.000000 1.000000
vn 0.000000 0.000000 1.000000
vn 0.000000 0.000000 1.000000
vn -0.923180 -0.384367 0.000000
vn -0.999982 -0.005928 0.000000
vn -0.999982 -0.005928 0.000000
vn -0.923180 -0.384367 0.000000
vn -0.372860 -0.002017 0.927885
vn -0.372701 -0.003020 0.927946
vn -0.372765 0.002774 0.927922
vn -0.372896 0.001902 0.927871
vn -0.361666 -0.118367 -0.924763
vn -0.358180 -0.158470 -0.920106
vn -0.361059 -0.122218 -0.924500
vn -0.357767 -0.162001 -0.919651
vn 0.000000 0.000000 -1.000000
vn 0.000000 0.000000 -1.000000
vn 0.000000 0.000000 -1.000000
vn 0.000000 0.000000 -1.000000
vn 0.360772 0.119296 -0.924993
vn 0.357708 0.160038 -0.920018
vn 0.361723 0.121009 -0.924399
vn 0.357981 0.160318 -0.919863
vn 0.000000 0.000000 1.000000
vn 0.000000 0.000000 1.000000
vn 0.000000 0.000000 1.000000
vn 0.000000 0.000000 1.000000
vn 0.000000 0.000000 -1.000000
vn 0.000000 0.000000 -1.000000
vn 0.000000 0.000000 -1.000000
vn 0.000000 0.000000 -1.000000
vn 0.000000 0.000000 1.000000
vn 0.000000 0.000000 1.000000
vn 0.000000 1.000000 -0.000000
vn 0.000000 1.000000 -0.000000
vn 0.000000 1.000000 -0.000000
vn 0.000000 1.000000 -0.000000
vn 0.000000 0.000000 -1.000000
vn 0.000000 0.000000 -1.000000
vn 0.000000 -1.000000 -0.000000
vn 0.000000 -1.000000 -0.000000
vn 0.000000 -1.000000 -0.000000
vn 0.000000 -1.000000 -0.000000
vn 0.998532 -0.054159 0.000000
vn 0.998532 -0.054159 0.000000
vn -0.998532 0.054159 -0.000000
vn -0.998532 0.054159 -0.000000
vn 0.000000 0.000000 1.000000
vn 0.000000 0.000000 1.000000
vn -0.998261 -0.058948 0.000000
vn -0.998261 -0.058948 0.000000
vn 0.000000 0.000000 -1.000000
vn 0.000000 0.000000 -1.000000
vn 0.998261 0.058948 0.000000
vn 0.998261 0.058948 0.000000
vn -0.377613 -0.289153 0.879659
vn -0.377613 -0.289153 0.879659
vn -0.377613 -0.289153 0.879659
vn 0.336400 -0.294087 0.894622
vn 0.336400 -0.294087 0.894622
vn 0.336400 -0.294087 0.894622
vn -0.357470 0.272128 0.893399
vn -0.357470 0.272128 0.893399
vn -0.357470 0.272128 0.893399
vn 0.355302 0.292476 0.887816
vn 0.355302 0.292476 0.887816
vn 0.355302 0.292476 0.887816
vn -0.355169 0.292615 -0.887824
vn -0.355169 0.292615 -0.887824
vn -0.355169 0.292615 -0.887824
vn 0.353125 0.310526 -0.882540
vn 0.353125 0.310526 -0.882540
vn 0.353125 0.310526 -0.882540
vn -0.357544 -0.273788 -0.892862
vn -0.357544 -0.273788 -0.892862
vn -0.357544 -0.273788 -0.892862
vn 0.355545 -0.292408 -0.887742
vn 0.355545 -0.292408 -0.887742
vn 0.355545 -0.292408 -0.887742
s off
g pCube3
usemtl initialShadingGroup
f 1/1/1 3/2/2 21/3/3 20/85/4
f 2/5/5 1/4/6 6/110/7 5/82/8
s 1
f 3/88/9 2/5/10 26/26/11 25/89/12
s off
f 4/6/13 6/7/14 23/22/15 22/8/16
s 2
f 5/82/17 4/9/18 32/29/19 31/27/20
s 1
f 7/10/21 9/91/22 47/37/23 46/43/24
s off
f 8/11/25 7/10/26 12/14/27 11/83/28
f 9/111/29 8/11/30 14/17/31 13/12/32
s 2
f 10/13/33 12/14/34 43/42/35 42/40/36
s off
f 11/83/37 10/15/38 18/112/39 17/18/40
s 5
f 13/92/41 15/16/42 36/114/43 35/90/44
s off
f 15/93/45 14/17/46 17/18/47 16/94/48
s 6
f 16/94/49 18/19/50 40/116/51 39/34/52
s 5
f 19/21/53 21/20/54 67/121/55 66/84/56
s off
f 20/85/57 19/21/58 24/23/59 23/22/60
s 6
f 22/113/61 24/23/62 71/72/63 70/24/64
s 9
f 25/89/65 28/98/66 68/68/67 67/25/68
s 10
f 27/28/69 26/26/70 31/27/71 30/96/72
s 1
f 28/98/73 27/28/74 62/63/75 61/99/76
s 11
f 29/31/77 32/29/78 70/30/79 69/101/80
s 2
f 30/96/81 29/31/82 60/57/83 59/97/84
s 12
f 33/32/85 36/33/86 39/34/87 38/105/88
s 5
f 34/36/89 33/35/90 52/118/91 51/104/92
s 9
f 35/90/93 34/36/94 48/44/95 47/37/96
s 11
f 37/38/97 40/39/98 42/40/99 41/106/100
s 6
f 38/105/101 37/41/102 56/120/103 55/47/104
s 2
f 41/106/105 44/102/106 75/76/107 74/54/108
s 10
f 44/102/109 43/42/110 46/43/111 45/103/112
s 1
f 45/103/113 48/44/114 79/51/115 78/77/116
s 12
f 49/45/117 52/46/118 55/47/119 54/109/120
s 5
f 50/50/121 49/48/122 84/49/123 83/64/124
s 9
f 51/104/125 50/50/126 80/66/127 79/51/128
s 11
f 53/52/129 56/53/130 74/54/131 73/61/132
s 6
f 54/109/133 53/55/134 88/56/135 87/80/136
s 11
f 57/60/137 60/57/138 85/58/139 88/59/140
s 2
f 58/62/141 57/60/142 73/61/143 76/107/144
s 10
f 59/97/145 58/62/146 63/65/147 62/63/148
s 9
f 61/99/149 64/108/150 83/64/151 82/69/152
s 1
f 64/108/153 63/65/154 77/78/155 80/66/156
s 5
f 65/67/157 68/68/158 82/69/159 81/70/160
s 12
f 66/84/161 65/71/162 72/74/163 71/72/164
s 6
f 69/73/165 72/74/166 86/81/167 85/75/168
s 10
f 76/107/169 75/76/170 78/77/171 77/78/172
s 12
f 81/100/173 84/79/174 87/80/175 86/81/176
s 10
f 2/5/177 5/82/178 31/27/71 26/26/70
s off
f 8/11/179 11/83/180 17/18/181 14/17/182
s 12
f 66/84/161 71/72/164 24/23/183 19/21/184
s off
f 20/85/185 23/22/186 6/7/187 1/1/188
s 11
f 4/9/189 22/86/190 70/30/79 32/29/78
s 9
f 21/87/191 3/88/192 25/89/65 67/25/68
s 10
f 46/43/111 43/42/110 12/14/193 7/10/194
s 9
f 35/90/93 47/37/96 9/91/195 13/92/196
s 12
f 15/93/197 16/94/198 39/34/87 36/33/86
s 11
f 42/40/99 40/39/98 18/95/199 10/13/200
s 10
f 27/28/69 30/96/72 59/97/145 62/63/148
s 9
f 68/68/67 28/98/66 61/99/149 82/69/152
s 12
f 81/100/173 86/81/176 72/74/163 65/71/162
s 11
f 29/31/77 69/101/80 85/58/139 60/57/138
s 10
f 78/77/171 75/76/170 44/102/109 45/103/112
s 9
f 51/104/125 79/51/128 48/44/95 34/36/94
s 12
f 33/32/85 38/105/88 55/47/119 52/46/118
s 11
f 74/54/131 56/53/130 37/38/97 41/106/100
s 10
f 63/65/147 58/62/146 76/107/169 77/78/172
s 9
f 83/64/151 64/108/150 80/66/127 50/50/126
s 12
f 49/45/117 54/109/120 87/80/175 84/79/174
s 11
f 57/60/137 88/59/140 53/52/129 73/61/132
s off
f 1/4/201 2/5/202 3/88/203
f 4/9/204 5/82/205 6/110/206
f 7/10/207 8/11/208 9/111/209
f 10/15/210 11/83/211 12/14/212
f 13/12/213 14/17/214 15/93/215
f 16/94/216 17/18/217 18/112/218
f 19/21/219 20/85/220 21/20/221
f 22/113/222 23/22/223 24/23/224
s 1
f 25/89/12 26/26/11 27/28/74 28/98/73
s 2
f 29/31/82 30/96/81 31/27/20 32/29/19
s 5
f 33/35/90 34/36/89 35/90/44 36/114/43
s 6
f 37/115/102 38/105/101 39/34/52 40/116/51
s 2
f 41/106/105 42/40/36 43/42/35 44/102/106
s 1
f 45/103/113 46/43/24 47/37/23 48/44/114
s 5
f 49/117/122 50/50/121 51/104/92 52/118/91
s 6
f 53/119/134 54/109/133 55/47/104 56/120/103
s 2
f 57/60/142 58/62/141 59/97/84 60/57/83
s 1
f 61/99/76 62/63/75 63/65/154 64/108/153
s 5
f 65/71/157 66/84/56 67/121/55 68/122/158
s 6
f 69/123/165 70/24/64 71/72/63 72/74/166
s 2
f 73/61/143 74/54/108 75/76/107 76/107/144
s 1
f 77/78/155 78/77/116 79/51/115 80/66/156
s 5
f 81/70/160 82/69/159 83/64/124 84/124/123
s 6
f 85/75/168 86/81/167 87/80/136 88/125/135
