# This file uses centimeters as units for non-parametric coordinates.

mtllib Mid_3.mtl
g default
v -0.233699 -0.729681 -0.529814
v -0.232185 -0.278990 -0.857267
v -0.230314 0.278089 -0.857267
v -0.228800 0.728781 -0.529814
v -0.228222 0.900919 0.000000
v -0.228800 0.728781 0.529814
v -0.230314 0.278089 0.857267
v -0.232185 -0.278990 0.857267
v -0.233699 -0.729681 0.529814
v -0.234278 -0.901833 -0.000000
v -0.038363 -0.694642 -0.503886
v -0.036923 -0.266018 -0.815311
v -0.035144 0.263799 -0.815311
v -0.033704 0.692430 -0.503886
v -0.033154 0.856156 0.000000
v -0.033704 0.692430 0.503886
v -0.035144 0.263799 0.815311
v -0.036923 -0.266012 0.815311
v -0.038363 -0.694642 0.503886
v -0.038913 -0.858368 -0.000000
v 0.138092 -0.591657 -0.428634
v 0.139317 -0.227044 -0.693540
v 0.140830 0.223645 -0.693540
v 0.142055 0.588260 -0.428634
v 0.142523 0.727533 0.000000
v 0.142055 0.588260 0.428633
v 0.140830 0.223645 0.693540
v 0.139317 -0.227040 0.693540
v 0.138092 -0.591657 0.428633
v 0.137624 -0.730929 -0.000000
v 0.278393 -0.430799 -0.311420
v 0.279283 -0.165890 -0.503886
v 0.280383 0.161552 -0.503886
v 0.281273 0.426463 -0.311419
v 0.281613 0.527643 0.000000
v 0.281273 0.426463 0.311419
v 0.280383 0.161552 0.503886
v 0.279283 -0.165890 0.503886
v 0.278393 -0.430799 0.311419
v 0.278053 -0.531978 -0.000000
v 0.368807 -0.227811 -0.163723
v 0.369275 -0.088543 -0.264907
v 0.369853 0.083603 -0.264907
v 0.370321 0.222874 -0.163723
v 0.370500 0.276071 0.000000
v 0.370321 0.222874 0.163723
v 0.369853 0.083603 0.264907
v 0.369275 -0.088545 0.264907
v 0.368807 -0.227811 0.163723
v 0.368628 -0.281008 -0.000000
v 0.400483 -0.002574 -0.000000
v -0.242465 -0.576038 -0.418346
v -0.241269 -0.220167 -0.676907
v -0.239792 0.219708 -0.676907
v -0.238596 0.575579 -0.418346
v -0.238140 0.711501 0.000000
v -0.238596 0.575579 0.418346
v -0.239792 0.219708 0.676907
v -0.241269 -0.220167 0.676907
v -0.242465 -0.576038 0.418346
v -0.242922 -0.711970 -0.000000
v -0.047154 -0.548509 -0.397873
v -0.046017 -0.210063 -0.643778
v -0.044612 0.208287 -0.643778
v -0.043475 0.546738 -0.397873
v -0.043040 0.676018 0.000000
v -0.043475 0.546738 0.397873
v -0.044612 0.208287 0.643778
v -0.046017 -0.210058 0.643778
v -0.047154 -0.548509 0.397873
v -0.047588 -0.677788 -0.000000
v 0.129228 -0.467315 -0.338454
v 0.130195 -0.179412 -0.547627
v 0.131390 0.176456 -0.547627
v 0.132358 0.464360 -0.338454
v 0.132727 0.574331 0.000000
v 0.132358 0.464360 0.338453
v 0.131390 0.176456 0.547627
v 0.130195 -0.179410 0.547627
v 0.129228 -0.467315 0.338453
v 0.128858 -0.577285 -0.000000
v 0.269415 -0.340398 -0.245900
v 0.270118 -0.131224 -0.397873
v 0.270986 0.127328 -0.397873
v 0.271689 0.336505 -0.245900
v 0.271958 0.416398 0.000000
v 0.271689 0.336505 0.245900
v 0.270986 0.127328 0.397873
v 0.270118 -0.131224 0.397873
v 0.269415 -0.340398 0.245900
v 0.269147 -0.420290 -0.000000
v 0.359685 -0.180181 -0.129278
v 0.360055 -0.070213 -0.209173
v 0.360511 0.065715 -0.209173
v 0.360881 0.175685 -0.129278
v 0.361022 0.217690 -0.000000
v 0.360881 0.175685 0.129278
v 0.360511 0.065715 0.209173
v 0.360055 -0.070214 0.209173
v 0.359685 -0.180181 0.129278
v 0.359544 -0.222186 -0.000000
v 0.391202 -0.002353 -0.000000
vt 0.000000 0.500000
vt 0.100000 0.500000
vt 0.200000 0.500000
vt 0.300000 0.500000
vt 0.400000 0.500000
vt 0.500000 0.500000
vt 0.600000 0.500000
vt 0.700000 0.500000
vt 0.800000 0.500000
vt 0.900000 0.500000
vt 1.000000 0.500000
vt 0.000000 0.600000
vt 0.100000 0.600000
vt 0.200000 0.600000
vt 0.300000 0.600000
vt 0.400000 0.600000
vt 0.500000 0.600000
vt 0.600000 0.600000
vt 0.700000 0.600000
vt 0.800000 0.600000
vt 0.900000 0.600000
vt 1.000000 0.600000
vt 0.000000 0.700000
vt 0.100000 0.700000
vt 0.200000 0.700000
vt 0.300000 0.700000
vt 0.400000 0.700000
vt 0.500000 0.700000
vt 0.600000 0.700000
vt 0.700000 0.700000
vt 0.800000 0.700000
vt 0.900000 0.700000
vt 1.000000 0.700000
vt 0.000000 0.800000
vt 0.100000 0.800000
vt 0.200000 0.800000
vt 0.300000 0.800000
vt 0.400000 0.800000
vt 0.500000 0.800000
vt 0.600000 0.800000
vt 0.700000 0.800000
vt 0.800000 0.800000
vt 0.900000 0.800000
vt 1.000000 0.800000
vt 0.000000 0.900000
vt 0.100000 0.900000
vt 0.200000 0.900000
vt 0.300000 0.900000
vt 0.400000 0.900000
vt 0.500000 0.900000
vt 0.600000 0.900000
vt 0.700000 0.900000
vt 0.800000 0.900000
vt 0.900000 0.900000
vt 1.000000 0.900000
vt 0.050000 1.000000
vt 0.150000 1.000000
vt 0.250000 1.000000
vt 0.350000 1.000000
vt 0.450000 1.000000
vt 0.550000 1.000000
vt 0.650000 1.000000
vt 0.750000 1.000000
vt 0.850000 1.000000
vt 0.950000 1.000000
vt 0.000000 0.500000
vt 0.100000 0.500000
vt 0.100000 0.600000
vt 0.000000 0.600000
vt 0.200000 0.500000
vt 0.200000 0.600000
vt 0.300000 0.500000
vt 0.300000 0.600000
vt 0.400000 0.500000
vt 0.400000 0.600000
vt 0.500000 0.500000
vt 0.500000 0.600000
vt 0.600000 0.500000
vt 0.600000 0.600000
vt 0.700000 0.500000
vt 0.700000 0.600000
vt 0.800000 0.500000
vt 0.800000 0.600000
vt 0.900000 0.500000
vt 0.900000 0.600000
vt 1.000000 0.500000
vt 1.000000 0.600000
vt 0.100000 0.700000
vt 0.000000 0.700000
vt 0.200000 0.700000
vt 0.300000 0.700000
vt 0.400000 0.700000
vt 0.500000 0.700000
vt 0.600000 0.700000
vt 0.700000 0.700000
vt 0.800000 0.700000
vt 0.900000 0.700000
vt 1.000000 0.700000
vt 0.100000 0.800000
vt 0.000000 0.800000
vt 0.200000 0.800000
vt 0.300000 0.800000
vt 0.400000 0.800000
vt 0.500000 0.800000
vt 0.600000 0.800000
vt 0.700000 0.800000
vt 0.800000 0.800000
vt 0.900000 0.800000
vt 1.000000 0.800000
vt 0.100000 0.900000
vt 0.000000 0.900000
vt 0.200000 0.900000
vt 0.300000 0.900000
vt 0.400000 0.900000
vt 0.500000 0.900000
vt 0.600000 0.900000
vt 0.700000 0.900000
vt 0.800000 0.900000
vt 0.900000 0.900000
vt 1.000000 0.900000
vt 0.050000 1.000000
vt 0.150000 1.000000
vt 0.250000 1.000000
vt 0.350000 1.000000
vt 0.450000 1.000000
vt 0.550000 1.000000
vt 0.650000 1.000000
vt 0.750000 1.000000
vt 0.850000 1.000000
vt 0.950000 1.000000
vt 0.105086 0.000000
vt 0.894696 0.000000
vt 1.000000 0.323865
vt 0.000000 0.323865
vt 0.000000 0.000000
vt 1.000000 0.000000
vt 0.895082 0.323980
vt 0.105472 0.323980
vt 0.105304 0.000000
vt 0.894914 0.000000
vt 1.000000 0.323865
vt 0.000000 0.323865
vt 0.000000 0.324187
vt 1.000000 0.324187
vt 0.895146 0.000000
vt 0.105535 0.000000
vt 0.000000 0.000000
vt 1.000000 0.000000
vt 0.895079 0.324380
vt 0.105468 0.324380
vt 0.000000 0.000000
vt 1.000000 0.000000
vt 0.894915 0.324511
vt 0.105304 0.324511
vt 0.000000 0.000000
vt 1.000000 0.000000
vt 0.894696 0.324511
vt 0.105085 0.324511
vt 0.105468 0.000000
vt 0.895079 0.000000
vt 1.000000 0.324380
vt 0.000000 0.324380
vt 0.105535 0.324187
vt 0.895146 0.324187
vt 1.000000 0.000000
vt 0.000000 0.000000
vt 0.105472 0.000000
vt 0.895082 0.000000
vt 1.000000 0.323980
vt 0.000000 0.323980
vn 0.208186 -0.575375 -0.790950
vn 0.208186 -0.575375 -0.790950
vn 0.208186 -0.575375 -0.790950
vn 0.208186 -0.575375 -0.790950
vn 0.210121 -0.000706 -0.977675
vn 0.210121 -0.000706 -0.977675
vn 0.210121 -0.000706 -0.977675
vn 0.210121 -0.000706 -0.977675
vn 0.212057 0.573959 -0.790951
vn 0.212057 0.573959 -0.790951
vn 0.212057 0.573959 -0.790951
vn 0.212057 0.573959 -0.790951
vn 0.213239 0.929115 -0.302116
vn 0.213239 0.929115 -0.302116
vn 0.213238 0.929115 -0.302116
vn 0.213239 0.929115 -0.302116
vn 0.213238 0.929115 0.302116
vn 0.213238 0.929115 0.302116
vn 0.213238 0.929115 0.302116
vn 0.213238 0.929115 0.302116
vn 0.212057 0.573959 0.790951
vn 0.212057 0.573959 0.790951
vn 0.212057 0.573959 0.790951
vn 0.212057 0.573959 0.790951
vn 0.210121 -0.000706 0.977675
vn 0.210121 -0.000706 0.977675
vn 0.210121 -0.000706 0.977675
vn 0.210121 -0.000706 0.977675
vn 0.208194 -0.575371 0.790951
vn 0.208194 -0.575371 0.790951
vn 0.208194 -0.575371 0.790951
vn 0.208194 -0.575371 0.790951
vn 0.207018 -0.930518 0.302125
vn 0.207018 -0.930518 0.302125
vn 0.207018 -0.930518 0.302125
vn 0.207018 -0.930518 0.302125
vn 0.207018 -0.930518 -0.302125
vn 0.207018 -0.930518 -0.302125
vn 0.207018 -0.930518 -0.302125
vn 0.207018 -0.930518 -0.302125
vn 0.567095 -0.485383 -0.665437
vn 0.567095 -0.485383 -0.665437
vn 0.567095 -0.485383 -0.665437
vn 0.567095 -0.485383 -0.665437
vn 0.568731 -0.001911 -0.822521
vn 0.568731 -0.001911 -0.822521
vn 0.568731 -0.001911 -0.822521
vn 0.568731 -0.001911 -0.822521
vn 0.570340 0.481559 -0.665442
vn 0.570340 0.481559 -0.665442
vn 0.570340 0.481559 -0.665442
vn 0.570340 0.481559 -0.665442
vn 0.571340 0.780360 -0.254182
vn 0.571340 0.780360 -0.254182
vn 0.571340 0.780360 -0.254182
vn 0.571340 0.780360 -0.254182
vn 0.571340 0.780360 0.254182
vn 0.571340 0.780360 0.254182
vn 0.571340 0.780360 0.254182
vn 0.571340 0.780360 0.254182
vn 0.570340 0.481560 0.665441
vn 0.570340 0.481560 0.665442
vn 0.570340 0.481560 0.665442
vn 0.570340 0.481560 0.665442
vn 0.568731 -0.001911 0.822521
vn 0.568731 -0.001911 0.822521
vn 0.568731 -0.001911 0.822521
vn 0.568731 -0.001911 0.822521
vn 0.567092 -0.485381 0.665442
vn 0.567092 -0.485381 0.665442
vn 0.567092 -0.485381 0.665442
vn 0.567092 -0.485381 0.665442
vn 0.566084 -0.784182 0.254182
vn 0.566084 -0.784182 0.254182
vn 0.566084 -0.784182 0.254182
vn 0.566084 -0.784182 0.254182
vn 0.566084 -0.784182 -0.254182
vn 0.566084 -0.784182 -0.254182
vn 0.566084 -0.784182 -0.254182
vn 0.566084 -0.784182 -0.254182
vn 0.803850 -0.351398 -0.479942
vn 0.803850 -0.351397 -0.479942
vn 0.803850 -0.351397 -0.479942
vn 0.803850 -0.351397 -0.479942
vn 0.805022 -0.002704 -0.593239
vn 0.805022 -0.002704 -0.593239
vn 0.805022 -0.002704 -0.593239
vn 0.805022 -0.002704 -0.593239
vn 0.806193 0.345987 -0.479943
vn 0.806193 0.345987 -0.479943
vn 0.806193 0.345987 -0.479943
vn 0.806193 0.345987 -0.479943
vn 0.806921 0.561493 -0.183317
vn 0.806921 0.561493 -0.183317
vn 0.806921 0.561493 -0.183317
vn 0.806921 0.561493 -0.183317
vn 0.806921 0.561493 0.183317
vn 0.806921 0.561493 0.183317
vn 0.806921 0.561493 0.183317
vn 0.806921 0.561493 0.183317
vn 0.806193 0.345987 0.479943
vn 0.806193 0.345987 0.479943
vn 0.806193 0.345987 0.479943
vn 0.806193 0.345987 0.479943
vn 0.805022 -0.002704 0.593239
vn 0.805022 -0.002704 0.593239
vn 0.805022 -0.002704 0.593239
vn 0.805022 -0.002704 0.593239
vn 0.803849 -0.351397 0.479944
vn 0.803849 -0.351397 0.479944
vn 0.803849 -0.351397 0.479944
vn 0.803849 -0.351397 0.479944
vn 0.803130 -0.566901 0.183316
vn 0.803130 -0.566901 0.183316
vn 0.803130 -0.566901 0.183316
vn 0.803130 -0.566901 0.183316
vn 0.803130 -0.566901 -0.183316
vn 0.803130 -0.566901 -0.183316
vn 0.803130 -0.566901 -0.183316
vn 0.803130 -0.566901 -0.183316
vn 0.935483 -0.209758 -0.284384
vn 0.935483 -0.209758 -0.284384
vn 0.935483 -0.209758 -0.284384
vn 0.935483 -0.209758 -0.284384
vn 0.936177 -0.003145 -0.351516
vn 0.936176 -0.003145 -0.351516
vn 0.936177 -0.003145 -0.351516
vn 0.936176 -0.003145 -0.351516
vn 0.936871 0.203467 -0.284385
vn 0.936871 0.203467 -0.284385
vn 0.936871 0.203467 -0.284385
vn 0.936870 0.203467 -0.284385
vn 0.937299 0.331168 -0.108622
vn 0.937299 0.331168 -0.108622
vn 0.937299 0.331168 -0.108622
vn 0.937299 0.331168 -0.108622
vn 0.937299 0.331168 0.108622
vn 0.937299 0.331168 0.108622
vn 0.937299 0.331168 0.108622
vn 0.937299 0.331168 0.108622
vn 0.936871 0.203467 0.284385
vn 0.936871 0.203467 0.284385
vn 0.936870 0.203467 0.284385
vn 0.936871 0.203467 0.284385
vn 0.936176 -0.003145 0.351517
vn 0.936176 -0.003145 0.351517
vn 0.936176 -0.003145 0.351517
vn 0.936176 -0.003145 0.351517
vn 0.935482 -0.209759 0.284384
vn 0.935482 -0.209759 0.284384
vn 0.935482 -0.209759 0.284384
vn 0.935482 -0.209759 0.284384
vn 0.935053 -0.337458 0.108621
vn 0.935053 -0.337458 0.108621
vn 0.935053 -0.337458 0.108621
vn 0.935053 -0.337458 0.108621
vn 0.935053 -0.337458 -0.108621
vn 0.935053 -0.337458 -0.108621
vn 0.935053 -0.337458 -0.108621
vn 0.935053 -0.337458 -0.108621
vn 0.993023 -0.071478 -0.093790
vn 0.993023 -0.071478 -0.093790
vn 0.993023 -0.071478 -0.093790
vn 0.993252 -0.003336 -0.115931
vn 0.993252 -0.003336 -0.115931
vn 0.993252 -0.003336 -0.115931
vn 0.993481 0.064804 -0.093791
vn 0.993481 0.064804 -0.093791
vn 0.993481 0.064804 -0.093791
vn 0.993622 0.106918 -0.035826
vn 0.993622 0.106918 -0.035826
vn 0.993622 0.106918 -0.035826
vn 0.993622 0.106919 0.035826
vn 0.993622 0.106919 0.035826
vn 0.993622 0.106919 0.035826
vn 0.993481 0.064804 0.093791
vn 0.993481 0.064804 0.093791
vn 0.993481 0.064804 0.093791
vn 0.993252 -0.003336 0.115931
vn 0.993252 -0.003336 0.115931
vn 0.993252 -0.003336 0.115931
vn 0.993023 -0.071479 0.093790
vn 0.993023 -0.071479 0.093790
vn 0.993023 -0.071479 0.093790
vn 0.992881 -0.113593 0.035825
vn 0.992881 -0.113593 0.035825
vn 0.992881 -0.113593 0.035825
vn 0.992881 -0.113593 -0.035825
vn 0.992881 -0.113593 -0.035825
vn 0.992881 -0.113593 -0.035825
vn -0.165360 0.580068 0.797607
vn -0.165360 0.580068 0.797607
vn -0.165360 0.580068 0.797607
vn -0.165360 0.580068 0.797607
vn -0.167310 0.000562 0.985904
vn -0.167310 0.000562 0.985904
vn -0.167310 0.000562 0.985904
vn -0.167310 0.000562 0.985904
vn -0.169262 -0.578940 0.797609
vn -0.169262 -0.578940 0.797608
vn -0.169262 -0.578940 0.797608
vn -0.169262 -0.578940 0.797609
vn -0.170455 -0.937085 0.304659
vn -0.170455 -0.937085 0.304659
vn -0.170455 -0.937085 0.304659
vn -0.170455 -0.937085 0.304659
vn -0.170455 -0.937085 -0.304659
vn -0.170455 -0.937085 -0.304659
vn -0.170455 -0.937085 -0.304659
vn -0.170455 -0.937085 -0.304659
vn -0.169262 -0.578940 -0.797609
vn -0.169262 -0.578940 -0.797608
vn -0.169262 -0.578940 -0.797608
vn -0.169262 -0.578940 -0.797609
vn -0.167310 0.000562 -0.985904
vn -0.167310 0.000562 -0.985904
vn -0.167310 0.000562 -0.985904
vn -0.167310 0.000562 -0.985904
vn -0.165367 0.580065 -0.797608
vn -0.165367 0.580065 -0.797608
vn -0.165367 0.580065 -0.797608
vn -0.165367 0.580065 -0.797608
vn -0.164177 0.938202 -0.304669
vn -0.164177 0.938202 -0.304669
vn -0.164177 0.938202 -0.304669
vn -0.164177 0.938202 -0.304669
vn -0.164176 0.938202 0.304669
vn -0.164176 0.938202 0.304669
vn -0.164176 0.938202 0.304669
vn -0.164176 0.938202 0.304669
vn -0.477459 0.517516 0.710078
vn -0.477459 0.517516 0.710078
vn -0.477459 0.517516 0.710078
vn -0.477459 0.517516 0.710078
vn -0.479204 0.001610 0.877702
vn -0.479204 0.001610 0.877702
vn -0.479204 0.001610 0.877702
vn -0.479204 0.001610 0.877702
vn -0.480922 -0.514293 0.710082
vn -0.480922 -0.514293 0.710082
vn -0.480922 -0.514293 0.710082
vn -0.480922 -0.514293 0.710082
vn -0.481989 -0.833138 0.271233
vn -0.481989 -0.833138 0.271233
vn -0.481989 -0.833138 0.271233
vn -0.481989 -0.833138 0.271233
vn -0.481989 -0.833138 -0.271234
vn -0.481989 -0.833138 -0.271234
vn -0.481989 -0.833138 -0.271234
vn -0.481989 -0.833138 -0.271234
vn -0.480922 -0.514293 -0.710082
vn -0.480922 -0.514293 -0.710082
vn -0.480922 -0.514293 -0.710082
vn -0.480922 -0.514293 -0.710082
vn -0.479204 0.001610 -0.877702
vn -0.479204 0.001610 -0.877702
vn -0.479204 0.001610 -0.877702
vn -0.479204 0.001610 -0.877702
vn -0.477456 0.517513 -0.710082
vn -0.477456 0.517513 -0.710082
vn -0.477456 0.517513 -0.710082
vn -0.477456 0.517513 -0.710082
vn -0.476380 0.836358 -0.271233
vn -0.476380 0.836358 -0.271233
vn -0.476380 0.836358 -0.271233
vn -0.476380 0.836358 -0.271233
vn -0.476380 0.836358 0.271233
vn -0.476380 0.836358 0.271233
vn -0.476380 0.836358 0.271233
vn -0.476380 0.836358 0.271233
vn -0.729727 0.403493 0.551989
vn -0.729727 0.403493 0.551989
vn -0.729727 0.403493 0.551989
vn -0.729727 0.403493 0.551989
vn -0.731074 0.002456 0.682293
vn -0.731074 0.002456 0.682293
vn -0.731074 0.002456 0.682293
vn -0.731074 0.002456 0.682293
vn -0.732422 -0.398579 0.551990
vn -0.732422 -0.398579 0.551990
vn -0.732422 -0.398579 0.551990
vn -0.732422 -0.398579 0.551990
vn -0.733259 -0.646436 0.210836
vn -0.733259 -0.646436 0.210836
vn -0.733259 -0.646436 0.210836
vn -0.733259 -0.646436 0.210836
vn -0.733259 -0.646436 -0.210836
vn -0.733259 -0.646436 -0.210836
vn -0.733259 -0.646436 -0.210836
vn -0.733259 -0.646436 -0.210836
vn -0.732422 -0.398579 -0.551990
vn -0.732422 -0.398579 -0.551990
vn -0.732422 -0.398579 -0.551990
vn -0.732422 -0.398579 -0.551990
vn -0.731074 0.002456 -0.682293
vn -0.731074 0.002456 -0.682293
vn -0.731074 0.002456 -0.682293
vn -0.731074 0.002456 -0.682293
vn -0.729726 0.403493 -0.551991
vn -0.729726 0.403493 -0.551991
vn -0.729726 0.403493 -0.551991
vn -0.729726 0.403493 -0.551991
vn -0.728900 0.651348 -0.210835
vn -0.728900 0.651348 -0.210835
vn -0.728900 0.651348 -0.210835
vn -0.728900 0.651348 -0.210835
vn -0.728899 0.651348 0.210835
vn -0.728899 0.651348 0.210835
vn -0.728899 0.651348 0.210835
vn -0.728899 0.651348 0.210835
vn -0.902241 0.255450 0.347428
vn -0.902241 0.255450 0.347428
vn -0.902241 0.255450 0.347428
vn -0.902241 0.255450 0.347428
vn -0.903089 0.003034 0.429443
vn -0.903089 0.003034 0.429443
vn -0.903089 0.003034 0.429443
vn -0.903089 0.003034 0.429443
vn -0.903937 -0.249381 0.347430
vn -0.903937 -0.249381 0.347430
vn -0.903937 -0.249381 0.347430
vn -0.903937 -0.249381 0.347430
vn -0.904460 -0.405392 0.132702
vn -0.904460 -0.405392 0.132702
vn -0.904460 -0.405392 0.132702
vn -0.904460 -0.405392 0.132702
vn -0.904460 -0.405392 -0.132702
vn -0.904460 -0.405392 -0.132702
vn -0.904460 -0.405392 -0.132702
vn -0.904460 -0.405392 -0.132702
vn -0.903937 -0.249381 -0.347430
vn -0.903937 -0.249381 -0.347430
vn -0.903937 -0.249381 -0.347430
vn -0.903937 -0.249381 -0.347430
vn -0.903089 0.003034 -0.429443
vn -0.903089 0.003034 -0.429443
vn -0.903089 0.003034 -0.429443
vn -0.903089 0.003034 -0.429443
vn -0.902241 0.255451 -0.347428
vn -0.902241 0.255451 -0.347428
vn -0.902241 0.255451 -0.347428
vn -0.902241 0.255451 -0.347428
vn -0.901716 0.411459 -0.132701
vn -0.901716 0.411459 -0.132701
vn -0.901716 0.411459 -0.132701
vn -0.901716 0.411459 -0.132701
vn -0.901716 0.411459 0.132701
vn -0.901716 0.411459 0.132701
vn -0.901716 0.411459 0.132701
vn -0.901716 0.411459 0.132701
vn -0.988957 0.089273 0.118302
vn -0.988957 0.089273 0.118302
vn -0.988957 0.089273 0.118302
vn -0.989245 0.003323 0.146228
vn -0.989245 0.003323 0.146228
vn -0.989245 0.003323 0.146228
vn -0.989534 -0.082625 0.118302
vn -0.989534 -0.082625 0.118302
vn -0.989534 -0.082625 0.118302
vn -0.989713 -0.135746 0.045188
vn -0.989713 -0.135746 0.045188
vn -0.989713 -0.135746 0.045188
vn -0.989713 -0.135746 -0.045188
vn -0.989713 -0.135746 -0.045188
vn -0.989713 -0.135746 -0.045188
vn -0.989534 -0.082625 -0.118302
vn -0.989534 -0.082625 -0.118302
vn -0.989534 -0.082625 -0.118302
vn -0.989245 0.003323 -0.146229
vn -0.989245 0.003323 -0.146229
vn -0.989245 0.003323 -0.146229
vn -0.988957 0.089273 -0.118301
vn -0.988957 0.089273 -0.118301
vn -0.988957 0.089273 -0.118301
vn -0.988778 0.142394 -0.045188
vn -0.988778 0.142394 -0.045187
vn -0.988778 0.142394 -0.045187
vn -0.988778 0.142394 0.045187
vn -0.988778 0.142394 0.045187
vn -0.988778 0.142394 0.045187
vn -0.998506 0.052281 0.015897
vn -0.998506 0.052281 0.015897
vn -0.998506 0.052281 0.015897
vn -0.998506 0.052281 0.015897
vn -0.998570 0.033582 0.041603
vn -0.998570 0.033582 0.041603
vn -0.998570 0.033582 0.041603
vn -0.998570 0.033582 0.041603
vn -0.998506 0.052281 -0.015897
vn -0.998506 0.052281 -0.015897
vn -0.998506 0.052281 -0.015897
vn -0.998506 0.052281 -0.015897
vn -0.998673 0.003355 0.051393
vn -0.998673 0.003355 0.051393
vn -0.998673 0.003355 0.051393
vn -0.998673 0.003355 0.051393
vn -0.998776 -0.026835 0.041552
vn -0.998776 -0.026835 0.041552
vn -0.998776 -0.026835 0.041552
vn -0.998776 -0.026835 0.041552
vn -0.998840 -0.045474 0.015866
vn -0.998840 -0.045474 0.015866
vn -0.998840 -0.045474 0.015866
vn -0.998840 -0.045474 0.015866
vn -0.998840 -0.045474 -0.015866
vn -0.998840 -0.045474 -0.015866
vn -0.998840 -0.045474 -0.015866
vn -0.998840 -0.045474 -0.015866
vn -0.998776 -0.026835 -0.041552
vn -0.998776 -0.026835 -0.041552
vn -0.998776 -0.026835 -0.041552
vn -0.998776 -0.026835 -0.041552
vn -0.998673 0.003355 -0.051393
vn -0.998673 0.003355 -0.051393
vn -0.998673 0.003355 -0.051393
vn -0.998673 0.003355 -0.051393
vn -0.998570 0.033582 -0.041603
vn -0.998570 0.033582 -0.041603
vn -0.998570 0.033582 -0.041603
vn -0.998570 0.033582 -0.041603
s off
g pSphere3
usemtl initialShadingGroup
f 1/1/1 2/2/2 12/13/3 11/12/4
f 2/2/5 3/3/6 13/14/7 12/13/8
f 3/3/9 4/4/10 14/15/11 13/14/12
f 4/4/13 5/5/14 15/16/15 14/15/16
f 5/5/17 6/6/18 16/17/19 15/16/20
f 6/6/21 7/7/22 17/18/23 16/17/24
f 7/7/25 8/8/26 18/19/27 17/18/28
f 8/8/29 9/9/30 19/20/31 18/19/32
f 9/9/33 10/10/34 20/21/35 19/20/36
f 10/10/37 1/11/38 11/22/39 20/21/40
f 11/12/41 12/13/42 22/24/43 21/23/44
f 12/13/45 13/14/46 23/25/47 22/24/48
f 13/14/49 14/15/50 24/26/51 23/25/52
f 14/15/53 15/16/54 25/27/55 24/26/56
f 15/16/57 16/17/58 26/28/59 25/27/60
f 16/17/61 17/18/62 27/29/63 26/28/64
f 17/18/65 18/19/66 28/30/67 27/29/68
f 18/19/69 19/20/70 29/31/71 28/30/72
f 19/20/73 20/21/74 30/32/75 29/31/76
f 20/21/77 11/22/78 21/33/79 30/32/80
f 21/23/81 22/24/82 32/35/83 31/34/84
f 22/24/85 23/25/86 33/36/87 32/35/88
f 23/25/89 24/26/90 34/37/91 33/36/92
f 24/26/93 25/27/94 35/38/95 34/37/96
f 25/27/97 26/28/98 36/39/99 35/38/100
f 26/28/101 27/29/102 37/40/103 36/39/104
f 27/29/105 28/30/106 38/41/107 37/40/108
f 28/30/109 29/31/110 39/42/111 38/41/112
f 29/31/113 30/32/114 40/43/115 39/42/116
f 30/32/117 21/33/118 31/44/119 40/43/120
f 31/34/121 32/35/122 42/46/123 41/45/124
f 32/35/125 33/36/126 43/47/127 42/46/128
f 33/36/129 34/37/130 44/48/131 43/47/132
f 34/37/133 35/38/134 45/49/135 44/48/136
f 35/38/137 36/39/138 46/50/139 45/49/140
f 36/39/141 37/40/142 47/51/143 46/50/144
f 37/40/145 38/41/146 48/52/147 47/51/148
f 38/41/149 39/42/150 49/53/151 48/52/152
f 39/42/153 40/43/154 50/54/155 49/53/156
f 40/43/157 31/44/158 41/55/159 50/54/160
f 41/45/161 42/46/162 51/56/163
f 42/46/164 43/47/165 51/57/166
f 43/47/167 44/48/168 51/58/169
f 44/48/170 45/49/171 51/59/172
f 45/49/173 46/50/174 51/60/175
f 46/50/176 47/51/177 51/61/178
f 47/51/179 48/52/180 51/62/181
f 48/52/182 49/53/183 51/63/184
f 49/53/185 50/54/186 51/64/187
f 50/54/188 41/55/189 51/65/190
f 52/66/191 62/69/192 63/68/193 53/67/194
f 53/67/195 63/68/196 64/71/197 54/70/198
f 54/70/199 64/71/200 65/73/201 55/72/202
f 55/72/203 65/73/204 66/75/205 56/74/206
f 56/74/207 66/75/208 67/77/209 57/76/210
f 57/76/211 67/77/212 68/79/213 58/78/214
f 58/78/215 68/79/216 69/81/217 59/80/218
f 59/80/219 69/81/220 70/83/221 60/82/222
f 60/82/223 70/83/224 71/85/225 61/84/226
f 61/84/227 71/85/228 62/87/229 52/86/230
f 62/69/231 72/89/232 73/88/233 63/68/234
f 63/68/235 73/88/236 74/90/237 64/71/238
f 64/71/239 74/90/240 75/91/241 65/73/242
f 65/73/243 75/91/244 76/92/245 66/75/246
f 66/75/247 76/92/248 77/93/249 67/77/250
f 67/77/251 77/93/252 78/94/253 68/79/254
f 68/79/255 78/94/256 79/95/257 69/81/258
f 69/81/259 79/95/260 80/96/261 70/83/262
f 70/83/263 80/96/264 81/97/265 71/85/266
f 71/85/267 81/97/268 72/98/269 62/87/270
f 72/89/271 82/100/272 83/99/273 73/88/274
f 73/88/275 83/99/276 84/101/277 74/90/278
f 74/90/279 84/101/280 85/102/281 75/91/282
f 75/91/283 85/102/284 86/103/285 76/92/286
f 76/92/287 86/103/288 87/104/289 77/93/290
f 77/93/291 87/104/292 88/105/293 78/94/294
f 78/94/295 88/105/296 89/106/297 79/95/298
f 79/95/299 89/106/300 90/107/301 80/96/302
f 80/96/303 90/107/304 91/108/305 81/97/306
f 81/97/307 91/108/308 82/109/309 72/98/310
f 82/100/311 92/111/312 93/110/313 83/99/314
f 83/99/315 93/110/316 94/112/317 84/101/318
f 84/101/319 94/112/320 95/113/321 85/102/322
f 85/102/323 95/113/324 96/114/325 86/103/326
f 86/103/327 96/114/328 97/115/329 87/104/330
f 87/104/331 97/115/332 98/116/333 88/105/334
f 88/105/335 98/116/336 99/117/337 89/106/338
f 89/106/339 99/117/340 100/118/341 90/107/342
f 90/107/343 100/118/344 101/119/345 91/108/346
f 91/108/347 101/119/348 92/120/349 82/109/350
f 92/111/351 102/121/352 93/110/353
f 93/110/354 102/122/355 94/112/356
f 94/112/357 102/123/358 95/113/359
f 95/113/360 102/124/361 96/114/362
f 96/114/363 102/125/364 97/115/365
f 97/115/366 102/126/367 98/116/368
f 98/116/369 102/127/370 99/117/371
f 99/117/372 102/128/373 100/118/374
f 100/118/375 102/129/376 101/119/377
f 101/119/378 102/130/379 92/120/380
f 56/131/381 57/132/382 6/133/383 5/134/384
f 7/135/385 6/136/386 57/137/387 58/138/388
f 55/139/389 56/140/390 5/141/391 4/142/392
f 8/143/393 7/144/394 58/145/395 59/146/396
f 9/147/397 8/148/398 59/149/399 60/150/400
f 10/151/401 9/152/402 60/153/403 61/154/404
f 1/155/405 10/156/406 61/157/407 52/158/408
f 52/159/409 53/160/410 2/161/411 1/162/412
f 53/163/413 54/164/414 3/165/415 2/166/416
f 54/167/417 55/168/418 4/169/419 3/170/420
